NotoSerifArmenian-SemiLight.ufo
<glyph name="dieresiscomb" format="2">
  <unicode hex="0308"/>
  <anchor x="0" y="536" name="_top"/>
  <outline>
    <contour>
      <point x="95" y="632" type="curve" smooth="yes"/>
      <point x="123" y="632"/>
      <point x="146" y="647"/>
      <point x="146" y="688" type="curve" smooth="yes"/>
      <point x="146" y="730"/>
      <point x="123" y="744"/>
      <point x="95" y="744" type="curve" smooth="yes"/>
      <point x="66" y="744"/>
      <point x="44" y="730"/>
      <point x="44" y="688" type="curve" smooth="yes"/>
      <point x="44" y="647"/>
      <point x="66" y="632"/>
    </contour>
    <contour>
      <point x="-95" y="632" type="curve" smooth="yes"/>
      <point x="-67" y="632"/>
      <point x="-44" y="647"/>
      <point x="-44" y="688" type="curve" smooth="yes"/>
      <point x="-44" y="730"/>
      <point x="-67" y="744"/>
      <point x="-95" y="744" type="curve" smooth="yes"/>
      <point x="-124" y="744"/>
      <point x="-146" y="730"/>
      <point x="-146" y="688" type="curve" smooth="yes"/>
      <point x="-146" y="647"/>
      <point x="-124" y="632"/>
    </contour>
  </outline>
</glyph>
<glyph name="uni0531" format="2">
  <advance width="783"/>
  <unicode hex="0531"/>
  <note>
uni0531
</note>
  <anchor x="347" y="714" name="top"/>
  <outline>
    <contour>
      <point x="474" y="714" type="line"/>
      <point x="474" y="686" type="line"/>
      <point x="521" y="686"/>
      <point x="527" y="675"/>
      <point x="527" y="605" type="curve" smooth="yes"/>
      <point x="527" y="213" type="line" smooth="yes"/>
      <point x="527" y="106"/>
      <point x="470" y="26"/>
      <point x="346" y="26" type="curve" smooth="yes"/>
      <point x="234" y="26"/>
      <point x="167" y="84"/>
      <point x="167" y="207" type="curve" smooth="yes"/>
      <point x="167" y="714" type="line"/>
      <point x="50" y="714" type="line"/>
      <point x="50" y="686" type="line"/>
      <point x="97" y="686"/>
      <point x="103" y="675"/>
      <point x="103" y="605" type="curve" smooth="yes"/>
      <point x="103" y="216" type="line" smooth="yes"/>
      <point x="103" y="57"/>
      <point x="198" y="-10"/>
      <point x="347" y="-10" type="curve" smooth="yes"/>
      <point x="508" y="-10"/>
      <point x="591" y="84"/>
      <point x="591" y="219" type="curve" smooth="yes"/>
      <point x="591" y="714" type="line"/>
    </contour>
    <contour>
      <point x="573" y="228" type="curve"/>
      <point x="573" y="190" type="line"/>
      <point x="586" y="195"/>
      <point x="605" y="198"/>
      <point x="625" y="198" type="curve" smooth="yes"/>
      <point x="671" y="198"/>
      <point x="693" y="176"/>
      <point x="693" y="108" type="curve" smooth="yes"/>
      <point x="693" y="0" type="line"/>
      <point x="755" y="0" type="line"/>
      <point x="755" y="107" type="line" smooth="yes"/>
      <point x="755" y="205"/>
      <point x="713" y="236"/>
      <point x="634" y="236" type="curve" smooth="yes"/>
      <point x="611" y="236"/>
      <point x="592" y="232"/>
    </contour>
  </outline>
</glyph>
<glyph name="uni0532" format="2">
  <advance width="654"/>
  <unicode hex="0532"/>
  <note>
uni0532
</note>
  <outline>
    <contour>
      <point x="218" y="0" type="line"/>
      <point x="218" y="28" type="line"/>
      <point x="171" y="28"/>
      <point x="165" y="39"/>
      <point x="165" y="109" type="curve" smooth="yes"/>
      <point x="165" y="501" type="line" smooth="yes"/>
      <point x="165" y="608"/>
      <point x="222" y="688"/>
      <point x="346" y="688" type="curve" smooth="yes"/>
      <point x="457" y="688"/>
      <point x="524" y="630"/>
      <point x="524" y="507" type="curve" smooth="yes"/>
      <point x="524" y="409" type="line"/>
      <point x="588" y="409" type="line"/>
      <point x="588" y="498" type="line" smooth="yes"/>
      <point x="588" y="657"/>
      <point x="493" y="724"/>
      <point x="344" y="724" type="curve" smooth="yes"/>
      <point x="183" y="724"/>
      <point x="101" y="630"/>
      <point x="101" y="495" type="curve" smooth="yes"/>
      <point x="101" y="0" type="line"/>
    </contour>
    <contour>
      <point x="156" y="309" type="line"/>
      <point x="579" y="309" type="line"/>
      <point x="579" y="343" type="line"/>
      <point x="156" y="343" type="line"/>
    </contour>
  </outline>
</glyph>
<glyph name="uni0533" format="2">
  <advance width="645"/>
  <unicode hex="0533"/>
  <note>
uni0533
</note>
  <outline>
    <contour>
      <point x="432" y="0" type="line"/>
      <point x="557" y="0" type="line"/>
      <point x="557" y="28" type="line"/>
      <point x="503" y="28"/>
      <point x="496" y="39"/>
      <point x="496" y="109" type="curve" smooth="yes"/>
      <point x="496" y="519" type="line" smooth="yes"/>
      <point x="496" y="649"/>
      <point x="431" y="724"/>
      <point x="284" y="724" type="curve" smooth="yes"/>
      <point x="137" y="724"/>
      <point x="57" y="651"/>
      <point x="57" y="514" type="curve" smooth="yes"/>
      <point x="57" y="380"/>
      <point x="164" y="308"/>
      <point x="313" y="308" type="curve" smooth="yes"/>
      <point x="432" y="308" type="line"/>
    </contour>
    <contour>
      <point x="313" y="342" type="line" smooth="yes"/>
      <point x="207" y="342"/>
      <point x="121" y="395"/>
      <point x="121" y="513" type="curve" smooth="yes"/>
      <point x="121" y="632"/>
      <point x="174" y="688"/>
      <point x="284" y="688" type="curve" smooth="yes"/>
      <point x="396" y="688"/>
      <point x="432" y="623"/>
      <point x="432" y="526" type="curve" smooth="yes"/>
      <point x="432" y="342" type="line"/>
    </contour>
    <contour>
      <point x="488" y="308" type="line"/>
      <point x="637" y="308" type="line"/>
      <point x="637" y="342" type="line"/>
      <point x="488" y="342" type="line"/>
    </contour>
  </outline>
</glyph>
<glyph name="uni0534" format="2">
  <advance width="685"/>
  <unicode hex="0534"/>
  <note>
uni0534
</note>
  <outline>
    <contour>
      <point x="66" y="362" type="line"/>
      <point x="130" y="362" type="line"/>
      <point x="130" y="501" type="line" smooth="yes"/>
      <point x="130" y="608"/>
      <point x="180" y="688"/>
      <point x="296" y="688" type="curve" smooth="yes"/>
      <point x="400" y="688"/>
      <point x="460" y="630"/>
      <point x="460" y="507" type="curve" smooth="yes"/>
      <point x="460" y="0" type="line"/>
      <point x="577" y="0" type="line"/>
      <point x="577" y="28" type="line"/>
      <point x="530" y="28"/>
      <point x="524" y="39"/>
      <point x="524" y="109" type="curve" smooth="yes"/>
      <point x="524" y="498" type="line" smooth="yes"/>
      <point x="524" y="657"/>
      <point x="437" y="724"/>
      <point x="295" y="724" type="curve" smooth="yes"/>
      <point x="141" y="724"/>
      <point x="66" y="630"/>
      <point x="66" y="495" type="curve" smooth="yes"/>
    </contour>
    <contour>
      <point x="508" y="309" type="line"/>
      <point x="678" y="309" type="line"/>
      <point x="678" y="343" type="line"/>
      <point x="508" y="343" type="line"/>
    </contour>
  </outline>
</glyph>
<glyph name="uni0535" format="2">
  <advance width="636"/>
  <unicode hex="0535"/>
  <note>
uni0535
</note>
  <outline>
    <contour>
      <point x="337" y="-10" type="curve" smooth="yes"/>
      <point x="480" y="-10"/>
      <point x="571" y="57"/>
      <point x="571" y="216" type="curve" smooth="yes"/>
      <point x="571" y="303" type="line"/>
      <point x="507" y="303" type="line"/>
      <point x="507" y="207" type="line" smooth="yes"/>
      <point x="507" y="84"/>
      <point x="443" y="26"/>
      <point x="339" y="26" type="curve" smooth="yes"/>
      <point x="222" y="26"/>
      <point x="167" y="106"/>
      <point x="167" y="213" type="curve" smooth="yes"/>
      <point x="167" y="714" type="line"/>
      <point x="50" y="714" type="line"/>
      <point x="50" y="686" type="line"/>
      <point x="95" y="686"/>
      <point x="103" y="675"/>
      <point x="103" y="605" type="curve" smooth="yes"/>
      <point x="103" y="219" type="line" smooth="yes"/>
      <point x="103" y="84"/>
      <point x="183" y="-10"/>
    </contour>
    <contour>
      <point x="157" y="451" type="line"/>
      <point x="562" y="451" type="line"/>
      <point x="562" y="485" type="line"/>
      <point x="157" y="485" type="line"/>
    </contour>
  </outline>
</glyph>
<glyph name="uni0536" format="2">
  <advance width="582"/>
  <unicode hex="0536"/>
  <note>
uni0536
</note>
  <outline>
    <contour>
      <point x="279" y="283" type="curve" smooth="yes"/>
      <point x="438" y="283"/>
      <point x="524" y="392"/>
      <point x="524" y="501" type="curve" smooth="yes"/>
      <point x="524" y="634"/>
      <point x="445" y="727"/>
      <point x="288" y="727" type="curve" smooth="yes"/>
      <point x="138" y="727"/>
      <point x="45" y="641"/>
      <point x="45" y="504" type="curve" smooth="yes"/>
      <point x="45" y="375"/>
      <point x="130" y="283"/>
    </contour>
    <contour>
      <point x="56" y="0" type="line"/>
      <point x="119" y="0" type="line"/>
      <point x="119" y="185" type="line"/>
      <point x="56" y="185" type="line"/>
    </contour>
    <contour>
      <point x="482" y="0" type="line"/>
      <point x="546" y="0" type="line"/>
      <point x="546" y="13" type="line" smooth="yes"/>
      <point x="546" y="102"/>
      <point x="495" y="130"/>
      <point x="418" y="130" type="curve" smooth="yes"/>
      <point x="88" y="130" type="line"/>
      <point x="88" y="96" type="line"/>
      <point x="399" y="96" type="line" smooth="yes"/>
      <point x="450" y="96"/>
      <point x="482" y="74"/>
      <point x="482" y="15" type="curve" smooth="yes"/>
    </contour>
    <contour>
      <point x="115" y="100" type="line"/>
      <point x="315" y="103"/>
      <point x="524" y="227"/>
      <point x="524" y="501" type="curve"/>
      <point x="465" y="501" type="line"/>
      <point x="465" y="245"/>
      <point x="289" y="130"/>
      <point x="115" y="130" type="curve"/>
    </contour>
    <contour>
      <point x="283" y="319" type="curve" smooth="yes"/>
      <point x="168" y="319"/>
      <point x="111" y="394"/>
      <point x="111" y="504" type="curve" smooth="yes"/>
      <point x="111" y="621"/>
      <point x="176" y="691"/>
      <point x="287" y="691" type="curve" smooth="yes"/>
      <point x="406" y="691"/>
      <point x="457" y="611"/>
      <point x="457" y="507" type="curve" smooth="yes"/>
      <point x="457" y="395"/>
      <point x="401" y="319"/>
    </contour>
  </outline>
</glyph>
<glyph name="uni0537" format="2">
  <advance width="521"/>
  <unicode hex="0537"/>
  <note>
uni0537
</note>
  <outline>
    <contour>
      <point x="167" y="27" type="line"/>
      <point x="167" y="714" type="line"/>
      <point x="50" y="714" type="line"/>
      <point x="50" y="686" type="line"/>
      <point x="95" y="686"/>
      <point x="103" y="675"/>
      <point x="103" y="605" type="curve" smooth="yes"/>
      <point x="103" y="0" type="line"/>
    </contour>
    <contour>
      <point x="142" y="451" type="line"/>
      <point x="460" y="451" type="line"/>
      <point x="460" y="485" type="line"/>
      <point x="142" y="485" type="line"/>
    </contour>
    <contour>
      <point x="331" y="94" type="curve" smooth="yes"/>
      <point x="268" y="94"/>
      <point x="186" y="72"/>
      <point x="103" y="30" type="curve"/>
      <point x="103" y="0" type="line"/>
      <point x="172" y="35"/>
      <point x="257" y="59"/>
      <point x="313" y="59" type="curve" smooth="yes"/>
      <point x="376" y="59"/>
      <point x="402" y="38"/>
      <point x="402" y="-35" type="curve" smooth="yes"/>
      <point x="402" y="-62" type="line"/>
      <point x="466" y="-62" type="line"/>
      <point x="466" y="-37" type="line" smooth="yes"/>
      <point x="466" y="62"/>
      <point x="419" y="94"/>
    </contour>
  </outline>
</glyph>
<glyph name="uni0538" format="2">
  <advance width="639"/>
  <unicode hex="0538"/>
  <note>
uni0538
</note>
  <outline>
    <contour>
      <point x="330" y="724" type="curve" smooth="yes"/>
      <point x="176" y="724"/>
      <point x="101" y="630"/>
      <point x="101" y="495" type="curve" smooth="yes"/>
      <point x="101" y="0" type="line"/>
      <point x="165" y="0" type="line"/>
      <point x="165" y="501" type="line" smooth="yes"/>
      <point x="165" y="608"/>
      <point x="215" y="688"/>
      <point x="331" y="688" type="curve" smooth="yes"/>
      <point x="435" y="688"/>
      <point x="496" y="630"/>
      <point x="496" y="507" type="curve" smooth="yes"/>
      <point x="496" y="356" type="line"/>
      <point x="560" y="356" type="line"/>
      <point x="560" y="498" type="line" smooth="yes"/>
      <point x="560" y="657"/>
      <point x="472" y="724"/>
    </contour>
    <contour>
      <point x="156" y="0" type="line"/>
      <point x="573" y="0" type="line"/>
      <point x="573" y="35" type="line"/>
      <point x="156" y="35" type="line"/>
    </contour>
  </outline>
</glyph>
<glyph name="uni0539" format="2">
  <advance width="761"/>
  <unicode hex="0539"/>
  <note>
uni0539
</note>
  <outline>
    <contour>
      <point x="218" y="0" type="line"/>
      <point x="218" y="28" type="line"/>
      <point x="171" y="28"/>
      <point x="165" y="39"/>
      <point x="165" y="109" type="curve" smooth="yes"/>
      <point x="165" y="476" type="line" smooth="yes"/>
      <point x="165" y="618"/>
      <point x="228" y="688"/>
      <point x="379" y="688" type="curve" smooth="yes"/>
      <point x="516" y="688"/>
      <point x="593" y="621"/>
      <point x="593" y="450" type="curve"/>
      <point x="657" y="450" type="line"/>
      <point x="657" y="646"/>
      <point x="552" y="724"/>
      <point x="378" y="724" type="curve" smooth="yes"/>
      <point x="190" y="724"/>
      <point x="101" y="640"/>
      <point x="101" y="476" type="curve" smooth="yes"/>
      <point x="101" y="0" type="line"/>
    </contour>
    <contour>
      <point x="505" y="428" type="curve" smooth="yes"/>
      <point x="593" y="428" type="line"/>
      <point x="593" y="227"/>
      <point x="552" y="169"/>
      <point x="471" y="169" type="curve" smooth="yes"/>
      <point x="399" y="169"/>
      <point x="365" y="217"/>
      <point x="365" y="298" type="curve" smooth="yes"/>
      <point x="365" y="395"/>
      <point x="432" y="428"/>
    </contour>
    <contour>
      <point x="753" y="462" type="line"/>
      <point x="504" y="462" type="line" smooth="yes"/>
      <point x="389" y="462"/>
      <point x="305" y="414"/>
      <point x="305" y="301" type="curve" smooth="yes"/>
      <point x="305" y="189"/>
      <point x="363" y="135"/>
      <point x="471" y="135" type="curve" smooth="yes"/>
      <point x="592" y="135"/>
      <point x="657" y="208"/>
      <point x="657" y="428" type="curve"/>
      <point x="753" y="428" type="line"/>
    </contour>
  </outline>
</glyph>
<glyph name="uni053A" format="2">
  <advance width="626"/>
  <unicode hex="053A"/>
  <note>
uni053A
</note>
  <outline>
    <contour>
      <point x="274" y="-10" type="curve" smooth="yes"/>
      <point x="429" y="-10"/>
      <point x="491" y="76"/>
      <point x="491" y="218" type="curve" smooth="yes"/>
      <point x="491" y="714" type="line"/>
      <point x="367" y="714" type="line"/>
      <point x="367" y="686" type="line"/>
      <point x="421" y="686"/>
      <point x="427" y="675"/>
      <point x="427" y="605" type="curve" smooth="yes"/>
      <point x="427" y="460" type="line"/>
      <point x="328" y="460" type="line" smooth="yes"/>
      <point x="159" y="460"/>
      <point x="50" y="376"/>
      <point x="50" y="227" type="curve" smooth="yes"/>
      <point x="50" y="70"/>
      <point x="128" y="-10"/>
    </contour>
    <contour>
      <point x="276" y="26" type="curve" smooth="yes"/>
      <point x="167" y="26"/>
      <point x="117" y="98"/>
      <point x="117" y="228" type="curve" smooth="yes"/>
      <point x="117" y="361"/>
      <point x="209" y="426"/>
      <point x="334" y="426" type="curve" smooth="yes"/>
      <point x="428" y="426" type="line"/>
      <point x="428" y="211" type="line" smooth="yes"/>
      <point x="428" y="103"/>
      <point x="394" y="26"/>
    </contour>
    <contour>
      <point x="482" y="460" type="line"/>
      <point x="482" y="426" type="line"/>
      <point x="617" y="426" type="line"/>
      <point x="617" y="460" type="line"/>
    </contour>
  </outline>
</glyph>
<glyph name="uni053B" format="2">
  <advance width="608"/>
  <unicode hex="053B"/>
  <note>
uni053B
</note>
  <outline>
    <contour>
      <point x="175" y="322" type="line" smooth="yes"/>
      <point x="175" y="428"/>
      <point x="231" y="518"/>
      <point x="337" y="518" type="curve" smooth="yes"/>
      <point x="425" y="518"/>
      <point x="479" y="466"/>
      <point x="479" y="365" type="curve" smooth="yes"/>
      <point x="479" y="269" type="line"/>
      <point x="543" y="269" type="line"/>
      <point x="543" y="360" type="line" smooth="yes"/>
      <point x="543" y="492"/>
      <point x="471" y="555"/>
      <point x="347" y="555" type="curve" smooth="yes"/>
      <point x="265" y="555"/>
      <point x="210" y="514"/>
      <point x="176" y="448" type="curve"/>
      <point x="172" y="448" type="line"/>
      <point x="174" y="479"/>
      <point x="175" y="511"/>
      <point x="175" y="543" type="curve" smooth="yes"/>
      <point x="175" y="714" type="line"/>
      <point x="58" y="714" type="line"/>
      <point x="58" y="686" type="line"/>
      <point x="105" y="686"/>
      <point x="111" y="678"/>
      <point x="111" y="608" type="curve" smooth="yes"/>
      <point x="111" y="0" type="line"/>
      <point x="229" y="0" type="line"/>
      <point x="229" y="28" type="line"/>
      <point x="182" y="28"/>
      <point x="175" y="36"/>
      <point x="175" y="106" type="curve" smooth="yes"/>
    </contour>
  </outline>
</glyph>
<glyph name="uni053C" format="2">
  <advance width="484"/>
  <unicode hex="053C"/>
  <note>
uni053C
</note>
  <outline>
    <contour>
      <point x="474" y="93" type="line"/>
      <point x="440" y="93" type="line"/>
      <point x="440" y="42"/>
      <point x="435" y="35"/>
      <point x="386" y="35" type="curve" smooth="yes"/>
      <point x="175" y="35" type="line"/>
      <point x="175" y="714" type="line"/>
      <point x="58" y="714" type="line"/>
      <point x="58" y="686" type="line"/>
      <point x="105" y="686"/>
      <point x="111" y="678"/>
      <point x="111" y="608" type="curve" smooth="yes"/>
      <point x="111" y="0" type="line"/>
      <point x="474" y="0" type="line"/>
    </contour>
  </outline>
</glyph>
<glyph name="uni053D" format="2">
  <advance width="726"/>
  <unicode hex="053D"/>
  <note>
uni053D
</note>
  <outline>
    <contour>
      <point x="175" y="106" type="curve" smooth="yes"/>
      <point x="175" y="714" type="line"/>
      <point x="58" y="714" type="line"/>
      <point x="58" y="686" type="line"/>
      <point x="105" y="686"/>
      <point x="111" y="678"/>
      <point x="111" y="608" type="curve" smooth="yes"/>
      <point x="111" y="0" type="line"/>
      <point x="229" y="0" type="line"/>
      <point x="229" y="28" type="line"/>
      <point x="182" y="28"/>
      <point x="175" y="36"/>
    </contour>
    <contour>
      <point x="539" y="531" type="line"/>
      <point x="586" y="531"/>
      <point x="595" y="523"/>
      <point x="595" y="470" type="curve" smooth="yes"/>
      <point x="595" y="333" type="line" smooth="yes"/>
      <point x="595" y="236"/>
      <point x="568" y="197"/>
      <point x="491" y="197" type="curve" smooth="yes"/>
      <point x="427" y="197"/>
      <point x="392" y="230"/>
      <point x="392" y="333" type="curve" smooth="yes"/>
      <point x="392" y="560" type="line"/>
      <point x="156" y="560" type="line"/>
      <point x="156" y="525" type="line"/>
      <point x="328" y="525" type="line"/>
      <point x="328" y="333" type="line" smooth="yes"/>
      <point x="328" y="212"/>
      <point x="390" y="162"/>
      <point x="491" y="162" type="curve" smooth="yes"/>
      <point x="600" y="162"/>
      <point x="659" y="217"/>
      <point x="659" y="335" type="curve" smooth="yes"/>
      <point x="659" y="560" type="line"/>
      <point x="539" y="560" type="line"/>
    </contour>
  </outline>
</glyph>
<glyph name="uni053E" format="2">
  <advance width="627"/>
  <unicode hex="053E"/>
  <note>
uni053E
</note>
  <outline>
    <contour>
      <point x="242" y="589" type="curve" smooth="yes"/>
      <point x="131" y="611"/>
      <point x="100" y="655"/>
      <point x="100" y="714" type="curve"/>
      <point x="39" y="714" type="line"/>
      <point x="39" y="633"/>
      <point x="86" y="584"/>
      <point x="215" y="559" type="curve" smooth="yes"/>
      <point x="438" y="515"/>
      <point x="509" y="393"/>
      <point x="509" y="243" type="curve" smooth="yes"/>
      <point x="509" y="105"/>
      <point x="427" y="26"/>
      <point x="311" y="26" type="curve" smooth="yes"/>
      <point x="168" y="26"/>
      <point x="116" y="104"/>
      <point x="116" y="248" type="curve" smooth="yes"/>
      <point x="116" y="446"/>
      <point x="306" y="690"/>
      <point x="426" y="690" type="curve" smooth="yes"/>
      <point x="469" y="690"/>
      <point x="498" y="672"/>
      <point x="499" y="598" type="curve"/>
      <point x="531" y="598"/>
      <point x="556" y="612"/>
      <point x="556" y="640" type="curve" smooth="yes"/>
      <point x="556" y="696"/>
      <point x="515" y="728"/>
      <point x="443" y="728" type="curve" smooth="yes"/>
      <point x="275" y="728"/>
      <point x="50" y="451"/>
      <point x="50" y="249" type="curve" smooth="yes"/>
      <point x="50" y="80"/>
      <point x="126" y="-10"/>
      <point x="311" y="-10" type="curve" smooth="yes"/>
      <point x="466" y="-10"/>
      <point x="576" y="88"/>
      <point x="576" y="243" type="curve" smooth="yes"/>
      <point x="576" y="411"/>
      <point x="479" y="542"/>
    </contour>
  </outline>
</glyph>
<glyph name="uni053F" format="2">
  <advance width="633"/>
  <unicode hex="053F"/>
  <note>
uni053F
</note>
  <outline>
    <contour>
      <point x="464" y="0" type="line"/>
      <point x="581" y="0" type="line"/>
      <point x="581" y="28" type="line"/>
      <point x="534" y="28"/>
      <point x="528" y="34"/>
      <point x="528" y="89" type="curve" smooth="yes"/>
      <point x="528" y="477" type="line"/>
      <point x="411" y="477" type="line"/>
      <point x="411" y="449" type="line"/>
      <point x="458" y="449"/>
      <point x="464" y="439"/>
      <point x="464" y="393" type="curve" smooth="yes"/>
      <point x="464" y="382" type="line" smooth="yes"/>
      <point x="464" y="282"/>
      <point x="416" y="196"/>
      <point x="301" y="196" type="curve" smooth="yes"/>
      <point x="222" y="196"/>
      <point x="167" y="248"/>
      <point x="167" y="349" type="curve" smooth="yes"/>
      <point x="167" y="714" type="line"/>
      <point x="50" y="714" type="line"/>
      <point x="50" y="686" type="line"/>
      <point x="97" y="686"/>
      <point x="103" y="675"/>
      <point x="103" y="610" type="curve" smooth="yes"/>
      <point x="103" y="348" type="line" smooth="yes"/>
      <point x="103" y="221"/>
      <point x="177" y="159"/>
      <point x="290" y="159" type="curve" smooth="yes"/>
      <point x="382" y="159"/>
      <point x="432" y="194"/>
      <point x="463" y="255" type="curve"/>
      <point x="467" y="255" type="line"/>
      <point x="465" y="224"/>
      <point x="464" y="192"/>
      <point x="464" y="160" type="curve" smooth="yes"/>
    </contour>
  </outline>
</glyph>
<glyph name="uni0540" format="2">
  <advance width="527"/>
  <unicode hex="0540"/>
  <note>
uni0540
</note>
  <outline>
    <contour>
      <point x="405" y="-63" type="line"/>
      <point x="469" y="-63" type="line"/>
      <point x="469" y="-50" type="line" smooth="yes"/>
      <point x="469" y="42"/>
      <point x="423" y="72"/>
      <point x="337" y="81" type="curve" smooth="yes"/>
      <point x="60" y="110" type="line"/>
      <point x="54" y="74" type="line"/>
      <point x="331" y="45" type="line" smooth="yes"/>
      <point x="378" y="40"/>
      <point x="405" y="14"/>
      <point x="405" y="-46" type="curve" smooth="yes"/>
    </contour>
    <contour>
      <point x="118" y="74" type="line"/>
      <point x="124" y="456"/>
      <point x="212" y="692"/>
      <point x="336" y="692" type="curve" smooth="yes"/>
      <point x="392" y="692"/>
      <point x="420" y="667"/>
      <point x="421" y="587" type="curve"/>
      <point x="452" y="587"/>
      <point x="478" y="601"/>
      <point x="478" y="631" type="curve" smooth="yes"/>
      <point x="478" y="691"/>
      <point x="430" y="728"/>
      <point x="342" y="728" type="curve" smooth="yes"/>
      <point x="171" y="728"/>
      <point x="62" y="493"/>
      <point x="54" y="74" type="curve"/>
    </contour>
  </outline>
</glyph>
<glyph name="uni0541" format="2">
  <advance width="590"/>
  <unicode hex="0541"/>
  <note>
uni0541
</note>
  <outline>
    <contour>
      <point x="282" y="354" type="curve" smooth="yes"/>
      <point x="174" y="354"/>
      <point x="116" y="421"/>
      <point x="116" y="522" type="curve" smooth="yes"/>
      <point x="116" y="628"/>
      <point x="183" y="691"/>
      <point x="294" y="691" type="curve" smooth="yes"/>
      <point x="406" y="691"/>
      <point x="464" y="613"/>
      <point x="464" y="473" type="curve" smooth="yes"/>
      <point x="464" y="456"/>
      <point x="464" y="436"/>
      <point x="462" y="416" type="curve"/>
      <point x="423" y="382"/>
      <point x="352" y="354"/>
    </contour>
    <contour>
      <point x="457" y="372" type="curve"/>
      <point x="434" y="193"/>
      <point x="322" y="26"/>
      <point x="192" y="26" type="curve" smooth="yes"/>
      <point x="142" y="26"/>
      <point x="109" y="54"/>
      <point x="109" y="99" type="curve" smooth="yes"/>
      <point x="109" y="147"/>
      <point x="147" y="182"/>
      <point x="203" y="182" type="curve" smooth="yes"/>
      <point x="325" y="182"/>
      <point x="362" y="-10"/>
      <point x="509" y="-10" type="curve" smooth="yes"/>
      <point x="536" y="-10"/>
      <point x="550" y="4"/>
      <point x="551" y="29" type="curve"/>
      <point x="376" y="29"/>
      <point x="368" y="217"/>
      <point x="197" y="217" type="curve" smooth="yes"/>
      <point x="108" y="217"/>
      <point x="50" y="167"/>
      <point x="50" y="97" type="curve" smooth="yes"/>
      <point x="50" y="31"/>
      <point x="99" y="-10"/>
      <point x="186" y="-10" type="curve" smooth="yes"/>
      <point x="373" y="-10"/>
      <point x="532" y="216"/>
      <point x="532" y="464" type="curve" smooth="yes"/>
      <point x="532" y="639"/>
      <point x="441" y="727"/>
      <point x="294" y="727" type="curve" smooth="yes"/>
      <point x="144" y="727"/>
      <point x="50" y="647"/>
      <point x="50" y="521" type="curve" smooth="yes"/>
      <point x="50" y="402"/>
      <point x="133" y="319"/>
      <point x="271" y="319" type="curve" smooth="yes"/>
      <point x="353" y="319"/>
      <point x="422" y="344"/>
    </contour>
  </outline>
</glyph>
<glyph name="uni0542" format="2">
  <advance width="692"/>
  <unicode hex="0542"/>
  <note>
uni0542
</note>
  <outline>
    <contour>
      <point x="508" y="0" type="line"/>
      <point x="687" y="0" type="line"/>
      <point x="687" y="35" type="line"/>
      <point x="508" y="35" type="line"/>
    </contour>
    <contour>
      <point x="300" y="724" type="curve" smooth="yes"/>
      <point x="158" y="724"/>
      <point x="66" y="657"/>
      <point x="66" y="498" type="curve" smooth="yes"/>
      <point x="66" y="348" type="line"/>
      <point x="130" y="348" type="line"/>
      <point x="130" y="507" type="line" smooth="yes"/>
      <point x="130" y="630"/>
      <point x="194" y="688"/>
      <point x="298" y="688" type="curve" smooth="yes"/>
      <point x="407" y="688"/>
      <point x="462" y="608"/>
      <point x="462" y="501" type="curve" smooth="yes"/>
      <point x="462" y="0" type="line"/>
      <point x="526" y="0" type="line"/>
      <point x="526" y="495" type="line" smooth="yes"/>
      <point x="526" y="630"/>
      <point x="447" y="724"/>
    </contour>
  </outline>
</glyph>
<glyph name="uni0543" format="2">
  <advance width="664"/>
  <unicode hex="0543"/>
  <note>
uni0543
</note>
  <outline>
    <contour>
      <point x="604" y="0" type="line"/>
      <point x="604" y="456"/>
      <point x="503" y="621"/>
      <point x="51" y="621" type="curve"/>
      <point x="51" y="583" type="line"/>
      <point x="456" y="583"/>
      <point x="540" y="441"/>
      <point x="540" y="36" type="curve"/>
      <point x="295" y="36" type="line" smooth="yes"/>
      <point x="174" y="36"/>
      <point x="121" y="80"/>
      <point x="121" y="189" type="curve" smooth="yes"/>
      <point x="121" y="386"/>
      <point x="306" y="689"/>
      <point x="475" y="689" type="curve" smooth="yes"/>
      <point x="525" y="689"/>
      <point x="552" y="660"/>
      <point x="553" y="580" type="curve"/>
      <point x="584" y="580"/>
      <point x="610" y="594"/>
      <point x="610" y="622" type="curve" smooth="yes"/>
      <point x="610" y="684"/>
      <point x="568" y="728"/>
      <point x="485" y="728" type="curve" smooth="yes"/>
      <point x="277" y="728"/>
      <point x="54" y="383"/>
      <point x="54" y="191" type="curve" smooth="yes"/>
      <point x="54" y="58"/>
      <point x="125" y="0"/>
      <point x="295" y="0" type="curve" smooth="yes"/>
    </contour>
  </outline>
</glyph>
<glyph name="uni0544" format="2">
  <advance width="704"/>
  <unicode hex="0544"/>
  <note>
uni0544
</note>
  <outline>
    <contour>
      <point x="474" y="714" type="line"/>
      <point x="474" y="686" type="line"/>
      <point x="521" y="686"/>
      <point x="527" y="675"/>
      <point x="527" y="605" type="curve" smooth="yes"/>
      <point x="527" y="213" type="line" smooth="yes"/>
      <point x="527" y="106"/>
      <point x="470" y="26"/>
      <point x="346" y="26" type="curve" smooth="yes"/>
      <point x="234" y="26"/>
      <point x="167" y="84"/>
      <point x="167" y="207" type="curve" smooth="yes"/>
      <point x="167" y="714" type="line"/>
      <point x="50" y="714" type="line"/>
      <point x="50" y="686" type="line"/>
      <point x="97" y="686"/>
      <point x="103" y="675"/>
      <point x="103" y="605" type="curve" smooth="yes"/>
      <point x="103" y="216" type="line" smooth="yes"/>
      <point x="103" y="57"/>
      <point x="198" y="-10"/>
      <point x="347" y="-10" type="curve" smooth="yes"/>
      <point x="508" y="-10"/>
      <point x="591" y="84"/>
      <point x="591" y="219" type="curve" smooth="yes"/>
      <point x="591" y="714" type="line"/>
    </contour>
    <contour>
      <point x="605" y="678" type="line" smooth="yes"/>
      <point x="651" y="678"/>
      <point x="664" y="656"/>
      <point x="664" y="582" type="curve"/>
      <point x="698" y="582"/>
      <point x="717" y="600"/>
      <point x="717" y="630" type="curve" smooth="yes"/>
      <point x="717" y="686"/>
      <point x="682" y="714"/>
      <point x="611" y="714" type="curve" smooth="yes"/>
      <point x="567" y="714" type="line"/>
      <point x="567" y="678" type="line"/>
    </contour>
  </outline>
</glyph>
<glyph name="uni0545" format="2">
  <advance width="610"/>
  <unicode hex="0545"/>
  <note>
uni0545
</note>
  <outline>
    <contour>
      <point x="305" y="-9" type="curve" smooth="yes"/>
      <point x="450" y="-9"/>
      <point x="565" y="66"/>
      <point x="565" y="201" type="curve" smooth="yes"/>
      <point x="565" y="326"/>
      <point x="473" y="373"/>
      <point x="391" y="382" type="curve"/>
      <point x="470" y="400"/>
      <point x="533" y="447"/>
      <point x="533" y="550" type="curve" smooth="yes"/>
      <point x="533" y="659"/>
      <point x="450" y="726"/>
      <point x="320" y="726" type="curve" smooth="yes"/>
      <point x="165" y="726"/>
      <point x="107" y="643"/>
      <point x="107" y="579" type="curve" smooth="yes"/>
      <point x="107" y="546"/>
      <point x="129" y="534"/>
      <point x="163" y="534" type="curve"/>
      <point x="163" y="614"/>
      <point x="192" y="691"/>
      <point x="318" y="691" type="curve" smooth="yes"/>
      <point x="415" y="691"/>
      <point x="468" y="632"/>
      <point x="468" y="548" type="curve" smooth="yes"/>
      <point x="468" y="449"/>
      <point x="410" y="399"/>
      <point x="302" y="399" type="curve" smooth="yes"/>
      <point x="54" y="399" type="line"/>
      <point x="54" y="364" type="line"/>
      <point x="302" y="364" type="line" smooth="yes"/>
      <point x="425" y="364"/>
      <point x="500" y="307"/>
      <point x="500" y="202" type="curve" smooth="yes"/>
      <point x="500" y="88"/>
      <point x="414" y="26"/>
      <point x="300" y="26" type="curve" smooth="yes"/>
      <point x="190" y="26"/>
      <point x="120" y="75"/>
      <point x="119" y="191" type="curve"/>
      <point x="85" y="191"/>
      <point x="62" y="175"/>
      <point x="62" y="150" type="curve" smooth="yes"/>
      <point x="62" y="49"/>
      <point x="150" y="-9"/>
    </contour>
  </outline>
</glyph>
<glyph name="uni0546" format="2">
  <advance width="576"/>
  <unicode hex="0546"/>
  <note>
uni0546
</note>
  <outline>
    <contour>
      <point x="289" y="-10" type="curve" smooth="yes"/>
      <point x="423" y="-10"/>
      <point x="510" y="57"/>
      <point x="510" y="216" type="curve" smooth="yes"/>
      <point x="510" y="415" type="line"/>
      <point x="446" y="415" type="line"/>
      <point x="446" y="213" type="line" smooth="yes"/>
      <point x="446" y="84"/>
      <point x="387" y="26"/>
      <point x="290" y="26" type="curve" smooth="yes"/>
      <point x="181" y="26"/>
      <point x="137" y="97"/>
      <point x="137" y="228" type="curve" smooth="yes"/>
      <point x="137" y="371"/>
      <point x="174" y="502"/>
      <point x="241" y="633" type="curve"/>
      <point x="194" y="618" type="line"/>
      <point x="121" y="501"/>
      <point x="70" y="369"/>
      <point x="70" y="228" type="curve" smooth="yes"/>
      <point x="70" y="75"/>
      <point x="142" y="-10"/>
    </contour>
    <contour>
      <point x="241" y="633" type="line"/>
      <point x="127" y="633"/>
      <point x="100" y="667"/>
      <point x="100" y="757" type="curve"/>
      <point x="62" y="757"/>
      <point x="41" y="735"/>
      <point x="41" y="710" type="curve" smooth="yes"/>
      <point x="41" y="638"/>
      <point x="92" y="598"/>
      <point x="213" y="598" type="curve"/>
    </contour>
  </outline>
</glyph>
<glyph name="uni0547" format="2">
  <advance width="634"/>
  <unicode hex="0547"/>
  <note>
uni0547
</note>
  <outline>
    <contour>
      <point x="39" y="662" type="line"/>
      <point x="79" y="679"/>
      <point x="121" y="686"/>
      <point x="152" y="686" type="curve" smooth="yes"/>
      <point x="302" y="686"/>
      <point x="326" y="573"/>
      <point x="468" y="573" type="curve" smooth="yes"/>
      <point x="558" y="573"/>
      <point x="599" y="630"/>
      <point x="599" y="714" type="curve"/>
      <point x="559" y="714" type="line"/>
      <point x="559" y="661"/>
      <point x="532" y="628"/>
      <point x="464" y="628" type="curve" smooth="yes"/>
      <point x="348" y="628"/>
      <point x="303" y="724"/>
      <point x="156" y="724" type="curve" smooth="yes"/>
      <point x="120" y="724"/>
      <point x="76" y="714"/>
      <point x="38" y="698" type="curve"/>
    </contour>
    <contour>
      <point x="371" y="622" type="curve"/>
      <point x="328" y="634" type="line"/>
      <point x="139" y="503"/>
      <point x="58" y="359"/>
      <point x="58" y="233" type="curve" smooth="yes"/>
      <point x="58" y="88"/>
      <point x="141" y="-11"/>
      <point x="297" y="-11" type="curve" smooth="yes"/>
      <point x="442" y="-11"/>
      <point x="535" y="67"/>
      <point x="535" y="210" type="curve" smooth="yes"/>
      <point x="535" y="295" type="line"/>
      <point x="471" y="295" type="line"/>
      <point x="471" y="206" type="line" smooth="yes"/>
      <point x="471" y="87"/>
      <point x="405" y="25"/>
      <point x="298" y="25" type="curve" smooth="yes"/>
      <point x="180" y="25"/>
      <point x="125" y="104"/>
      <point x="125" y="232" type="curve" smooth="yes"/>
      <point x="125" y="358"/>
      <point x="192" y="494"/>
    </contour>
  </outline>
</glyph>
<glyph name="uni0548" format="2">
  <advance width="692"/>
  <unicode hex="0548"/>
  <note>
uni0548
</note>
  <anchor x="345" y="714" name="top"/>
  <outline>
    <contour>
      <point x="218" y="0" type="line"/>
      <point x="218" y="28" type="line"/>
      <point x="171" y="28"/>
      <point x="165" y="39"/>
      <point x="165" y="109" type="curve" smooth="yes"/>
      <point x="165" y="501" type="line" smooth="yes"/>
      <point x="165" y="608"/>
      <point x="222" y="688"/>
      <point x="346" y="688" type="curve" smooth="yes"/>
      <point x="457" y="688"/>
      <point x="524" y="630"/>
      <point x="524" y="507" type="curve" smooth="yes"/>
      <point x="524" y="0" type="line"/>
      <point x="642" y="0" type="line"/>
      <point x="642" y="28" type="line"/>
      <point x="595" y="28"/>
      <point x="588" y="39"/>
      <point x="588" y="109" type="curve" smooth="yes"/>
      <point x="588" y="498" type="line" smooth="yes"/>
      <point x="588" y="657"/>
      <point x="493" y="724"/>
      <point x="344" y="724" type="curve" smooth="yes"/>
      <point x="183" y="724"/>
      <point x="101" y="630"/>
      <point x="101" y="495" type="curve" smooth="yes"/>
      <point x="101" y="0" type="line"/>
    </contour>
  </outline>
</glyph>
<glyph name="uni0549" format="2">
  <advance width="593"/>
  <unicode hex="0549"/>
  <note>
uni0549
</note>
  <outline>
    <contour>
      <point x="232" y="113" type="curve"/>
      <point x="266" y="94" type="line"/>
      <point x="459" y="213"/>
      <point x="540" y="351"/>
      <point x="540" y="480" type="curve" smooth="yes"/>
      <point x="540" y="626"/>
      <point x="456" y="724"/>
      <point x="298" y="724" type="curve" smooth="yes"/>
      <point x="153" y="724"/>
      <point x="58" y="657"/>
      <point x="58" y="503" type="curve" smooth="yes"/>
      <point x="58" y="478" type="line"/>
      <point x="122" y="478" type="line"/>
      <point x="122" y="507" type="line" smooth="yes"/>
      <point x="122" y="637"/>
      <point x="189" y="688"/>
      <point x="297" y="688" type="curve" smooth="yes"/>
      <point x="417" y="688"/>
      <point x="473" y="609"/>
      <point x="473" y="482" type="curve" smooth="yes"/>
      <point x="473" y="356"/>
      <point x="411" y="226"/>
    </contour>
    <contour>
      <point x="527" y="-11" type="curve"/>
      <point x="527" y="27" type="line"/>
      <point x="343" y="36"/>
      <point x="207" y="136"/>
      <point x="104" y="277" type="curve"/>
      <point x="39" y="243" type="line"/>
      <point x="158" y="102"/>
      <point x="325" y="0"/>
    </contour>
  </outline>
</glyph>
<glyph name="uni054A" format="2">
  <advance width="725"/>
  <unicode hex="054A"/>
  <note>
uni054A
</note>
  <outline>
    <contour>
      <point x="622" y="109" type="curve" smooth="yes"/>
      <point x="622" y="494" type="line" smooth="yes"/>
      <point x="622" y="657"/>
      <point x="511" y="724"/>
      <point x="345" y="724" type="curve" smooth="yes"/>
      <point x="169" y="724"/>
      <point x="71" y="630"/>
      <point x="71" y="495" type="curve" smooth="yes"/>
      <point x="71" y="321" type="line"/>
      <point x="135" y="321" type="line"/>
      <point x="135" y="501" type="line" smooth="yes"/>
      <point x="135" y="608"/>
      <point x="207" y="688"/>
      <point x="347" y="688" type="curve" smooth="yes"/>
      <point x="474" y="688"/>
      <point x="558" y="630"/>
      <point x="558" y="501" type="curve" smooth="yes"/>
      <point x="558" y="0" type="line"/>
      <point x="676" y="0" type="line"/>
      <point x="676" y="28" type="line"/>
      <point x="628" y="28"/>
      <point x="622" y="39"/>
    </contour>
    <contour>
      <point x="314" y="695" type="line"/>
      <point x="314" y="174" type="line"/>
      <point x="378" y="174" type="line"/>
      <point x="378" y="695" type="line"/>
    </contour>
  </outline>
</glyph>
<glyph name="uni054B" format="2">
  <advance width="585"/>
  <unicode hex="054B"/>
  <note>
uni054B
</note>
  <outline>
    <contour>
      <point x="69" y="0" type="line"/>
      <point x="132" y="0" type="line"/>
      <point x="132" y="185" type="line"/>
      <point x="69" y="185" type="line"/>
    </contour>
    <contour>
      <point x="483" y="0" type="line"/>
      <point x="547" y="0" type="line"/>
      <point x="547" y="13" type="line" smooth="yes"/>
      <point x="547" y="102"/>
      <point x="496" y="130"/>
      <point x="419" y="130" type="curve" smooth="yes"/>
      <point x="100" y="130" type="line"/>
      <point x="100" y="96" type="line"/>
      <point x="400" y="96" type="line" smooth="yes"/>
      <point x="451" y="96"/>
      <point x="483" y="74"/>
      <point x="483" y="15" type="curve" smooth="yes"/>
    </contour>
    <contour>
      <point x="251" y="153" type="curve"/>
      <point x="284" y="178" type="line"/>
      <point x="283" y="239"/>
      <point x="265" y="268"/>
      <point x="202" y="330" type="curve" smooth="yes"/>
      <point x="149" y="382"/>
      <point x="120" y="432"/>
      <point x="120" y="503" type="curve" smooth="yes"/>
      <point x="120" y="626"/>
      <point x="187" y="692"/>
      <point x="290" y="692" type="curve" smooth="yes"/>
      <point x="397" y="692"/>
      <point x="463" y="629"/>
      <point x="463" y="489" type="curve" smooth="yes"/>
      <point x="463" y="357"/>
      <point x="380" y="249"/>
      <point x="270" y="172" type="curve" smooth="yes"/>
      <point x="235" y="148"/>
      <point x="186" y="130"/>
      <point x="130" y="130" type="curve"/>
      <point x="261" y="130" type="line"/>
      <point x="417" y="212"/>
      <point x="528" y="340"/>
      <point x="528" y="488" type="curve" smooth="yes"/>
      <point x="528" y="644"/>
      <point x="437" y="728"/>
      <point x="291" y="728" type="curve" smooth="yes"/>
      <point x="144" y="728"/>
      <point x="54" y="638"/>
      <point x="54" y="498" type="curve" smooth="yes"/>
      <point x="54" y="416"/>
      <point x="83" y="355"/>
      <point x="167" y="293" type="curve" smooth="yes"/>
      <point x="222" y="253"/>
      <point x="251" y="221"/>
    </contour>
  </outline>
</glyph>
<glyph name="uni054C" format="2">
  <advance width="758"/>
  <unicode hex="054C"/>
  <note>
uni054C
</note>
  <outline>
    <contour>
      <point x="217" y="0" type="line"/>
      <point x="217" y="28" type="line"/>
      <point x="170" y="28"/>
      <point x="164" y="39"/>
      <point x="164" y="109" type="curve" smooth="yes"/>
      <point x="164" y="501" type="line" smooth="yes"/>
      <point x="164" y="615"/>
      <point x="221" y="688"/>
      <point x="345" y="688" type="curve" smooth="yes"/>
      <point x="456" y="688"/>
      <point x="523" y="630"/>
      <point x="523" y="507" type="curve" smooth="yes"/>
      <point x="523" y="0" type="line"/>
      <point x="641" y="0" type="line"/>
      <point x="641" y="28" type="line"/>
      <point x="594" y="28"/>
      <point x="587" y="39"/>
      <point x="587" y="109" type="curve" smooth="yes"/>
      <point x="587" y="498" type="line" smooth="yes"/>
      <point x="587" y="657"/>
      <point x="492" y="724"/>
      <point x="343" y="724" type="curve" smooth="yes"/>
      <point x="182" y="724"/>
      <point x="100" y="637"/>
      <point x="100" y="495" type="curve" smooth="yes"/>
      <point x="100" y="0" type="line"/>
    </contour>
    <contour>
      <point x="570" y="395" type="curve"/>
      <point x="570" y="357" type="line"/>
      <point x="583" y="362"/>
      <point x="602" y="365"/>
      <point x="622" y="365" type="curve" smooth="yes"/>
      <point x="668" y="365"/>
      <point x="690" y="344"/>
      <point x="690" y="275" type="curve" smooth="yes"/>
      <point x="690" y="203" type="line"/>
      <point x="752" y="203" type="line"/>
      <point x="752" y="274" type="line" smooth="yes"/>
      <point x="752" y="372"/>
      <point x="710" y="403"/>
      <point x="631" y="403" type="curve" smooth="yes"/>
      <point x="608" y="403"/>
      <point x="589" y="400"/>
    </contour>
  </outline>
</glyph>
<glyph name="uni054D" format="2">
  <advance width="692"/>
  <unicode hex="054D"/>
  <note>
uni054D
</note>
  <outline>
    <contour>
      <point x="474" y="714" type="line"/>
      <point x="474" y="686" type="line"/>
      <point x="521" y="686"/>
      <point x="527" y="675"/>
      <point x="527" y="605" type="curve" smooth="yes"/>
      <point x="527" y="213" type="line" smooth="yes"/>
      <point x="527" y="106"/>
      <point x="470" y="26"/>
      <point x="346" y="26" type="curve" smooth="yes"/>
      <point x="234" y="26"/>
      <point x="167" y="84"/>
      <point x="167" y="207" type="curve" smooth="yes"/>
      <point x="167" y="714" type="line"/>
      <point x="50" y="714" type="line"/>
      <point x="50" y="686" type="line"/>
      <point x="97" y="686"/>
      <point x="103" y="675"/>
      <point x="103" y="605" type="curve" smooth="yes"/>
      <point x="103" y="216" type="line" smooth="yes"/>
      <point x="103" y="57"/>
      <point x="198" y="-10"/>
      <point x="347" y="-10" type="curve" smooth="yes"/>
      <point x="508" y="-10"/>
      <point x="591" y="84"/>
      <point x="591" y="219" type="curve" smooth="yes"/>
      <point x="591" y="714" type="line"/>
    </contour>
  </outline>
</glyph>
<glyph name="uni054E" format="2">
  <advance width="694"/>
  <unicode hex="054E"/>
  <note>
uni054E
</note>
  <outline>
    <contour>
      <point x="399" y="714" type="line"/>
      <point x="399" y="686" type="line"/>
      <point x="446" y="686"/>
      <point x="452" y="675"/>
      <point x="452" y="605" type="curve" smooth="yes"/>
      <point x="452" y="392" type="line" smooth="yes"/>
      <point x="452" y="282"/>
      <point x="404" y="196"/>
      <point x="297" y="196" type="curve" smooth="yes"/>
      <point x="210" y="196"/>
      <point x="155" y="248"/>
      <point x="155" y="349" type="curve" smooth="yes"/>
      <point x="155" y="478" type="line"/>
      <point x="38" y="478" type="line"/>
      <point x="38" y="449" type="line"/>
      <point x="85" y="449"/>
      <point x="91" y="439"/>
      <point x="91" y="374" type="curve" smooth="yes"/>
      <point x="91" y="348" type="line" smooth="yes"/>
      <point x="91" y="221"/>
      <point x="165" y="159"/>
      <point x="287" y="159" type="curve" smooth="yes"/>
      <point x="370" y="159"/>
      <point x="420" y="194"/>
      <point x="451" y="255" type="curve"/>
      <point x="455" y="255" type="line"/>
      <point x="453" y="224"/>
      <point x="452" y="192"/>
      <point x="452" y="160" type="curve" smooth="yes"/>
      <point x="452" y="0" type="line"/>
      <point x="516" y="0" type="line"/>
      <point x="516" y="714" type="line"/>
    </contour>
    <contour>
      <point x="503" y="0" type="line"/>
      <point x="688" y="0" type="line"/>
      <point x="688" y="35" type="line"/>
      <point x="503" y="35" type="line"/>
    </contour>
  </outline>
</glyph>
<glyph name="uni054F" format="2">
  <advance width="561"/>
  <unicode hex="054F"/>
  <note>
uni054F
</note>
  <outline>
    <contour>
      <point x="276" y="-10" type="curve" smooth="yes"/>
      <point x="432" y="-10"/>
      <point x="513" y="70"/>
      <point x="513" y="180" type="curve" smooth="yes"/>
      <point x="513" y="272"/>
      <point x="466" y="318"/>
      <point x="297" y="393" type="curve" smooth="yes"/>
      <point x="151" y="458"/>
      <point x="121" y="498"/>
      <point x="121" y="563" type="curve" smooth="yes"/>
      <point x="121" y="629"/>
      <point x="173" y="688"/>
      <point x="267" y="688" type="curve" smooth="yes"/>
      <point x="366" y="688"/>
      <point x="415" y="646"/>
      <point x="415" y="560" type="curve"/>
      <point x="447" y="560"/>
      <point x="467" y="579"/>
      <point x="467" y="613" type="curve" smooth="yes"/>
      <point x="467" y="678"/>
      <point x="398" y="724"/>
      <point x="273" y="724" type="curve" smooth="yes"/>
      <point x="142" y="724"/>
      <point x="64" y="649"/>
      <point x="64" y="549" type="curve" smooth="yes"/>
      <point x="64" y="465"/>
      <point x="102" y="410"/>
      <point x="261" y="341" type="curve" smooth="yes"/>
      <point x="404" y="279"/>
      <point x="456" y="239"/>
      <point x="456" y="165" type="curve" smooth="yes"/>
      <point x="456" y="84"/>
      <point x="401" y="26"/>
      <point x="283" y="26" type="curve" smooth="yes"/>
      <point x="161" y="26"/>
      <point x="97" y="79"/>
      <point x="97" y="182" type="curve"/>
      <point x="66" y="182"/>
      <point x="44" y="163"/>
      <point x="44" y="127" type="curve" smooth="yes"/>
      <point x="44" y="60"/>
      <point x="114" y="-10"/>
    </contour>
  </outline>
</glyph>
<glyph name="uni0550" format="2">
  <advance width="632"/>
  <unicode hex="0550"/>
  <note>
uni0550
</note>
  <outline>
    <contour>
      <point x="330" y="724" type="curve" smooth="yes"/>
      <point x="183" y="724"/>
      <point x="101" y="630"/>
      <point x="101" y="495" type="curve" smooth="yes"/>
      <point x="101" y="0" type="line"/>
      <point x="218" y="0" type="line"/>
      <point x="218" y="28" type="line"/>
      <point x="171" y="28"/>
      <point x="165" y="39"/>
      <point x="165" y="109" type="curve" smooth="yes"/>
      <point x="165" y="501" type="line" smooth="yes"/>
      <point x="165" y="608"/>
      <point x="222" y="688"/>
      <point x="331" y="688" type="curve" smooth="yes"/>
      <point x="435" y="688"/>
      <point x="502" y="630"/>
      <point x="502" y="507" type="curve" smooth="yes"/>
      <point x="502" y="349" type="line"/>
      <point x="566" y="349" type="line"/>
      <point x="566" y="498" type="line" smooth="yes"/>
      <point x="566" y="657"/>
      <point x="472" y="724"/>
    </contour>
  </outline>
</glyph>
<glyph name="uni0551" format="2">
  <advance width="539"/>
  <unicode hex="0551"/>
  <note>
uni0551
</note>
  <outline>
    <contour>
      <point x="315" y="389" type="curve"/>
      <point x="315" y="392" type="line"/>
      <point x="408" y="417"/>
      <point x="473" y="466"/>
      <point x="473" y="563" type="curve" smooth="yes"/>
      <point x="473" y="657"/>
      <point x="402" y="726"/>
      <point x="264" y="726" type="curve" smooth="yes"/>
      <point x="102" y="726"/>
      <point x="50" y="628"/>
      <point x="50" y="561" type="curve" smooth="yes"/>
      <point x="50" y="477"/>
      <point x="90" y="422"/>
      <point x="198" y="388" type="curve"/>
      <point x="198" y="385" type="line"/>
      <point x="30" y="340" type="line"/>
      <point x="42" y="291" type="line"/>
      <point x="254" y="368" type="line"/>
      <point x="371" y="341"/>
      <point x="433" y="291"/>
      <point x="433" y="185" type="curve" smooth="yes"/>
      <point x="433" y="87"/>
      <point x="360" y="27"/>
      <point x="254" y="27" type="curve" smooth="yes"/>
      <point x="149" y="27"/>
      <point x="88" y="71"/>
      <point x="88" y="190" type="curve"/>
      <point x="53" y="190"/>
      <point x="29" y="174"/>
      <point x="29" y="143" type="curve" smooth="yes"/>
      <point x="29" y="50"/>
      <point x="112" y="-9"/>
      <point x="256" y="-9" type="curve" smooth="yes"/>
      <point x="407" y="-9"/>
      <point x="500" y="71"/>
      <point x="500" y="186" type="curve" smooth="yes"/>
      <point x="500" y="302"/>
      <point x="430" y="364"/>
    </contour>
    <contour>
      <point x="113" y="561" type="curve" smooth="yes"/>
      <point x="113" y="614"/>
      <point x="149" y="689"/>
      <point x="264" y="689" type="curve" smooth="yes"/>
      <point x="359" y="689"/>
      <point x="410" y="637"/>
      <point x="410" y="561" type="curve" smooth="yes"/>
      <point x="410" y="480"/>
      <point x="363" y="439"/>
      <point x="258" y="406" type="curve"/>
      <point x="142" y="439"/>
      <point x="113" y="487"/>
    </contour>
  </outline>
</glyph>
<glyph name="uni0552" format="2">
  <advance width="567"/>
  <unicode hex="0552"/>
  <note>
uni0552
</note>
  <outline>
    <contour>
      <point x="169" y="527" type="line"/>
      <point x="169" y="492" type="line"/>
      <point x="221" y="492" type="line" smooth="yes"/>
      <point x="286" y="492"/>
      <point x="300" y="479"/>
      <point x="355" y="354" type="curve" smooth="yes"/>
      <point x="415" y="217"/>
      <point x="435" y="208"/>
      <point x="501" y="208" type="curve" smooth="yes"/>
      <point x="550" y="208" type="line"/>
      <point x="550" y="242" type="line"/>
      <point x="526" y="242" type="line" smooth="yes"/>
      <point x="480" y="242"/>
      <point x="471" y="249"/>
      <point x="414" y="378" type="curve" smooth="yes"/>
      <point x="356" y="509"/>
      <point x="331" y="527"/>
      <point x="229" y="527" type="curve" smooth="yes"/>
    </contour>
    <contour>
      <point x="175" y="106" type="curve" smooth="yes"/>
      <point x="175" y="714" type="line"/>
      <point x="58" y="714" type="line"/>
      <point x="58" y="686" type="line"/>
      <point x="105" y="686"/>
      <point x="111" y="678"/>
      <point x="111" y="608" type="curve" smooth="yes"/>
      <point x="111" y="0" type="line"/>
      <point x="229" y="0" type="line"/>
      <point x="229" y="28" type="line"/>
      <point x="182" y="28"/>
      <point x="175" y="36"/>
    </contour>
  </outline>
</glyph>
<glyph name="uni0553" format="2">
  <advance width="683"/>
  <unicode hex="0553"/>
  <note>
uni0553
</note>
  <outline>
    <contour>
      <point x="392" y="134" type="line" smooth="yes"/>
      <point x="560" y="134"/>
      <point x="639" y="220"/>
      <point x="639" y="365" type="curve" smooth="yes"/>
      <point x="639" y="495"/>
      <point x="562" y="590"/>
      <point x="403" y="590" type="curve" smooth="yes"/>
      <point x="371" y="590" type="line"/>
      <point x="371" y="714" type="line"/>
      <point x="261" y="714" type="line"/>
      <point x="261" y="685" type="line"/>
      <point x="301" y="685"/>
      <point x="311" y="681"/>
      <point x="311" y="609" type="curve" smooth="yes"/>
      <point x="311" y="590" type="line"/>
      <point x="280" y="590" type="line" smooth="yes"/>
      <point x="121" y="590"/>
      <point x="43" y="495"/>
      <point x="43" y="365" type="curve" smooth="yes"/>
      <point x="43" y="220"/>
      <point x="122" y="134"/>
      <point x="286" y="134" type="curve" smooth="yes"/>
      <point x="311" y="134" type="line"/>
      <point x="311" y="0" type="line"/>
      <point x="422" y="0" type="line"/>
      <point x="422" y="29" type="line"/>
      <point x="378" y="29"/>
      <point x="371" y="34"/>
      <point x="371" y="101" type="curve" smooth="yes"/>
      <point x="371" y="134" type="line"/>
    </contour>
    <contour>
      <point x="311" y="168" type="line"/>
      <point x="287" y="168" type="line" smooth="yes"/>
      <point x="169" y="168"/>
      <point x="105" y="230"/>
      <point x="105" y="364" type="curve" smooth="yes"/>
      <point x="105" y="485"/>
      <point x="168" y="556"/>
      <point x="283" y="556" type="curve" smooth="yes"/>
      <point x="311" y="556" type="line"/>
    </contour>
    <contour>
      <point x="372" y="556" type="line"/>
      <point x="399" y="556" type="line" smooth="yes"/>
      <point x="515" y="556"/>
      <point x="578" y="485"/>
      <point x="578" y="364" type="curve" smooth="yes"/>
      <point x="578" y="230"/>
      <point x="513" y="168"/>
      <point x="391" y="168" type="curve" smooth="yes"/>
      <point x="372" y="168" type="line"/>
    </contour>
  </outline>
</glyph>
<glyph name="uni0554" format="2">
  <advance width="553"/>
  <unicode hex="0554"/>
  <note>
uni0554
</note>
  <outline>
    <contour>
      <point x="109" y="0" type="line"/>
      <point x="173" y="0" type="line"/>
      <point x="173" y="350" type="line"/>
      <point x="286" y="350" type="line" smooth="yes"/>
      <point x="418" y="350"/>
      <point x="499" y="413"/>
      <point x="499" y="535" type="curve" smooth="yes"/>
      <point x="499" y="661"/>
      <point x="434" y="724"/>
      <point x="303" y="724" type="curve" smooth="yes"/>
      <point x="179" y="724"/>
      <point x="109" y="651"/>
      <point x="109" y="499" type="curve" smooth="yes"/>
    </contour>
    <contour>
      <point x="282" y="384" type="curve" smooth="yes"/>
      <point x="173" y="384" type="line"/>
      <point x="173" y="499" type="line" smooth="yes"/>
      <point x="173" y="629"/>
      <point x="214" y="688"/>
      <point x="302" y="688" type="curve" smooth="yes"/>
      <point x="393" y="688"/>
      <point x="435" y="632"/>
      <point x="435" y="535" type="curve" smooth="yes"/>
      <point x="435" y="433"/>
      <point x="368" y="384"/>
    </contour>
    <contour>
      <point x="18" y="216" type="line"/>
      <point x="497" y="216" type="line"/>
      <point x="497" y="250" type="line"/>
      <point x="18" y="250" type="line"/>
    </contour>
  </outline>
</glyph>
<glyph name="uni0555" format="2">
  <advance width="711"/>
  <unicode hex="0555"/>
  <note>
uni0555
</note>
  <anchor x="355" y="714" name="top"/>
  <outline>
    <contour>
      <point x="356" y="-10" type="curve" smooth="yes"/>
      <point x="562" y="-10"/>
      <point x="655" y="135"/>
      <point x="655" y="358" type="curve" smooth="yes"/>
      <point x="655" y="587"/>
      <point x="564" y="725"/>
      <point x="357" y="725" type="curve" smooth="yes"/>
      <point x="158" y="725"/>
      <point x="56" y="589"/>
      <point x="56" y="359" type="curve" smooth="yes"/>
      <point x="56" y="128"/>
      <point x="155" y="-10"/>
    </contour>
    <contour>
      <point x="356" y="26" type="curve" smooth="yes"/>
      <point x="198" y="26"/>
      <point x="123" y="149"/>
      <point x="123" y="358" type="curve" smooth="yes"/>
      <point x="123" y="567"/>
      <point x="198" y="689"/>
      <point x="357" y="689" type="curve" smooth="yes"/>
      <point x="526" y="689"/>
      <point x="588" y="567"/>
      <point x="588" y="358" type="curve" smooth="yes"/>
      <point x="588" y="151"/>
      <point x="522" y="26"/>
    </contour>
  </outline>
</glyph>
<glyph name="uni0556" format="2">
  <advance width="623"/>
  <unicode hex="0556"/>
  <note>
uni0556
</note>
  <outline>
    <contour>
      <point x="306" y="-10" type="curve" smooth="yes"/>
      <point x="491" y="-10"/>
      <point x="575" y="74"/>
      <point x="575" y="189" type="curve" smooth="yes"/>
      <point x="575" y="315"/>
      <point x="508" y="381"/>
      <point x="314" y="403" type="curve" smooth="yes"/>
      <point x="159" y="421"/>
      <point x="125" y="469"/>
      <point x="125" y="559" type="curve" smooth="yes"/>
      <point x="125" y="636"/>
      <point x="173" y="689"/>
      <point x="282" y="689" type="curve"/>
      <point x="282" y="724" type="line"/>
      <point x="140" y="724"/>
      <point x="65" y="656"/>
      <point x="65" y="559" type="curve" smooth="yes"/>
      <point x="65" y="448"/>
      <point x="120" y="389"/>
      <point x="289" y="370" type="curve" smooth="yes"/>
      <point x="465" y="350"/>
      <point x="515" y="296"/>
      <point x="515" y="186" type="curve" smooth="yes"/>
      <point x="515" y="87"/>
      <point x="452" y="25"/>
      <point x="300" y="25" type="curve" smooth="yes"/>
      <point x="153" y="25"/>
      <point x="86" y="77"/>
      <point x="86" y="185" type="curve"/>
      <point x="57" y="185"/>
      <point x="35" y="167"/>
      <point x="35" y="138" type="curve" smooth="yes"/>
      <point x="35" y="59"/>
      <point x="113" y="-10"/>
    </contour>
    <contour>
      <point x="282" y="724" type="line"/>
      <point x="282" y="5" type="line"/>
      <point x="342" y="5" type="line"/>
      <point x="342" y="724" type="line"/>
    </contour>
  </outline>
</glyph>
<glyph name="uni0559" format="2">
  <advance width="211"/>
  <unicode hex="0559"/>
  <note>
uni0559
</note>
  <outline>
    <contour>
      <point x="156" y="515" type="curve"/>
      <point x="156" y="572" type="line"/>
      <point x="112" y="572"/>
      <point x="94" y="597"/>
      <point x="94" y="630" type="curve" smooth="yes"/>
      <point x="94" y="667"/>
      <point x="118" y="705"/>
      <point x="163" y="734" type="curve"/>
      <point x="146" y="760" type="line"/>
      <point x="87" y="727"/>
      <point x="48" y="673"/>
      <point x="48" y="616" type="curve" smooth="yes"/>
      <point x="48" y="555"/>
      <point x="83" y="516"/>
    </contour>
  </outline>
</glyph>
<glyph name="uni055A" format="2">
  <advance width="211"/>
  <unicode hex="055A"/>
  <note>
uni055A
</note>
  <outline>
    <contour>
      <point x="55" y="760" type="curve"/>
      <point x="55" y="704" type="line"/>
      <point x="99" y="703"/>
      <point x="117" y="678"/>
      <point x="117" y="646" type="curve" smooth="yes"/>
      <point x="117" y="608"/>
      <point x="92" y="571"/>
      <point x="48" y="541" type="curve"/>
      <point x="64" y="515" type="line"/>
      <point x="123" y="548"/>
      <point x="163" y="602"/>
      <point x="163" y="660" type="curve" smooth="yes"/>
      <point x="163" y="720"/>
      <point x="127" y="760"/>
    </contour>
  </outline>
</glyph>
<glyph name="uni055B" format="2">
  <advance width="243"/>
  <unicode hex="055B"/>
  <note>
uni055B
</note>
  <outline>
    <contour>
      <point x="72" y="603" type="line"/>
      <point x="110" y="603" type="line"/>
      <point x="140" y="676"/>
      <point x="164" y="744"/>
      <point x="181" y="805" type="curve"/>
      <point x="176" y="814" type="line"/>
      <point x="127" y="814" type="line"/>
      <point x="123" y="789"/>
      <point x="111" y="738"/>
      <point x="98" y="696" type="curve" smooth="yes"/>
      <point x="72" y="614" type="line"/>
    </contour>
  </outline>
</glyph>
<glyph name="uni055C" format="2">
  <advance width="269"/>
  <unicode hex="055C"/>
  <note>
uni055C
</note>
  <outline>
    <contour>
      <point x="95" y="603" type="curve"/>
      <point x="141" y="603" type="line"/>
      <point x="141" y="615" type="line" smooth="yes"/>
      <point x="141" y="650"/>
      <point x="153" y="667"/>
      <point x="190" y="690" type="curve" smooth="yes"/>
      <point x="247" y="725"/>
      <point x="255" y="740"/>
      <point x="255" y="814" type="curve"/>
      <point x="209" y="814" type="line"/>
      <point x="209" y="799" type="line" smooth="yes"/>
      <point x="209" y="754"/>
      <point x="200" y="743"/>
      <point x="164" y="721" type="curve" smooth="yes"/>
      <point x="106" y="686"/>
      <point x="95" y="667"/>
    </contour>
  </outline>
</glyph>
<glyph name="uni055D" format="2">
  <advance width="243"/>
  <unicode hex="055D"/>
  <note>
uni055D
</note>
  <outline>
    <contour>
      <point x="171" y="603" type="line"/>
      <point x="171" y="614" type="line"/>
      <point x="146" y="696" type="line" smooth="yes"/>
      <point x="133" y="738"/>
      <point x="121" y="789"/>
      <point x="116" y="814" type="curve"/>
      <point x="67" y="814" type="line"/>
      <point x="62" y="805" type="line"/>
      <point x="79" y="744"/>
      <point x="103" y="676"/>
      <point x="134" y="603" type="curve"/>
    </contour>
  </outline>
</glyph>
<glyph name="uni055E" format="2">
  <advance width="379"/>
  <unicode hex="055E"/>
  <note>
uni055E
</note>
  <outline>
    <contour>
      <point x="84" y="649" type="curve"/>
      <point x="136" y="649" type="line"/>
      <point x="136" y="735"/>
      <point x="173" y="788"/>
      <point x="241" y="788" type="curve" smooth="yes"/>
      <point x="275" y="788"/>
      <point x="295" y="772"/>
      <point x="295" y="741" type="curve" smooth="yes"/>
      <point x="295" y="712"/>
      <point x="280" y="699"/>
      <point x="245" y="699" type="curve" smooth="yes"/>
      <point x="230" y="699"/>
      <point x="220" y="702"/>
      <point x="210" y="706" type="curve"/>
      <point x="210" y="676"/>
      <point x="229" y="661"/>
      <point x="266" y="661" type="curve" smooth="yes"/>
      <point x="317" y="661"/>
      <point x="349" y="690"/>
      <point x="349" y="739" type="curve" smooth="yes"/>
      <point x="349" y="791"/>
      <point x="311" y="825"/>
      <point x="244" y="825" type="curve" smooth="yes"/>
      <point x="147" y="825"/>
      <point x="84" y="760"/>
    </contour>
  </outline>
</glyph>
<glyph name="uni055F" format="2">
  <advance width="403"/>
  <unicode hex="055F"/>
  <note>
uni055F
</note>
  <outline>
    <contour>
      <point x="189" y="610" type="curve" smooth="yes"/>
      <point x="356" y="610" type="line"/>
      <point x="356" y="648" type="line"/>
      <point x="198" y="648" type="line" smooth="yes"/>
      <point x="134" y="648"/>
      <point x="113" y="669"/>
      <point x="113" y="703" type="curve" smooth="yes"/>
      <point x="113" y="739"/>
      <point x="137" y="759"/>
      <point x="172" y="759" type="curve" smooth="yes"/>
      <point x="188" y="759"/>
      <point x="205" y="754"/>
      <point x="216" y="749" type="curve"/>
      <point x="216" y="778"/>
      <point x="196" y="799"/>
      <point x="158" y="799" type="curve" smooth="yes"/>
      <point x="103" y="799"/>
      <point x="62" y="762"/>
      <point x="62" y="703" type="curve" smooth="yes"/>
      <point x="62" y="644"/>
      <point x="104" y="610"/>
    </contour>
  </outline>
</glyph>
<glyph name="uni0560" format="2">
  <advance width="850"/>
  <unicode hex="0560"/>
  <note>
uni0561
</note>
  <anchor x="425" y="492" name="top"/>
  <outline>
    <contour>
      <point x="215" y="0" type="line"/>
      <point x="215" y="29" type="line"/>
      <point x="159" y="29"/>
      <point x="156" y="35"/>
      <point x="156" y="96" type="curve" smooth="yes"/>
      <point x="156" y="283" type="line" smooth="yes"/>
      <point x="156" y="376"/>
      <point x="198" y="458"/>
      <point x="287" y="458" type="curve" smooth="yes"/>
      <point x="368" y="458"/>
      <point x="398" y="405"/>
      <point x="398" y="311" type="curve" smooth="yes"/>
      <point x="398" y="0" type="line"/>
      <point x="520" y="0" type="line"/>
      <point x="520" y="29" type="line"/>
      <point x="464" y="29"/>
      <point x="460" y="34"/>
      <point x="460" y="96" type="curve" smooth="yes"/>
      <point x="460" y="297" type="line" smooth="yes"/>
      <point x="460" y="387"/>
      <point x="499" y="459"/>
      <point x="593" y="459" type="curve" smooth="yes"/>
      <point x="673" y="459"/>
      <point x="702" y="406"/>
      <point x="702" y="311" type="curve" smooth="yes"/>
      <point x="702" y="0" type="line"/>
      <point x="824" y="0" type="line"/>
      <point x="824" y="29" type="line"/>
      <point x="769" y="29"/>
      <point x="764" y="33"/>
      <point x="764" y="94" type="curve" smooth="yes"/>
      <point x="764" y="316" type="line" smooth="yes"/>
      <point x="764" y="437"/>
      <point x="717" y="500"/>
      <point x="611" y="500" type="curve" smooth="yes"/>
      <point x="532" y="500"/>
      <point x="480" y="463"/>
      <point x="454" y="403" type="curve"/>
      <point x="449" y="403" type="line"/>
      <point x="432" y="459"/>
      <point x="393" y="500"/>
      <point x="307" y="500" type="curve" smooth="yes"/>
      <point x="240" y="500"/>
      <point x="188" y="474"/>
      <point x="159" y="405" type="curve"/>
      <point x="154" y="405" type="line"/>
      <point x="148" y="492" type="line"/>
      <point x="34" y="492" type="line"/>
      <point x="34" y="464" type="line"/>
      <point x="89" y="464"/>
      <point x="94" y="458"/>
      <point x="94" y="398" type="curve" smooth="yes"/>
      <point x="94" y="0" type="line"/>
    </contour>
  </outline>
</glyph>
<glyph name="uni0561" format="2">
  <advance width="850"/>
  <unicode hex="0561"/>
  <note>
uni0561
</note>
  <anchor x="421" y="492" name="top"/>
  <outline>
    <contour>
      <point x="635" y="492" type="line"/>
      <point x="635" y="463" type="line"/>
      <point x="691" y="463"/>
      <point x="694" y="457"/>
      <point x="694" y="396" type="curve" smooth="yes"/>
      <point x="694" y="209" type="line" smooth="yes"/>
      <point x="694" y="116"/>
      <point x="652" y="34"/>
      <point x="563" y="34" type="curve" smooth="yes"/>
      <point x="482" y="34"/>
      <point x="452" y="87"/>
      <point x="452" y="181" type="curve" smooth="yes"/>
      <point x="452" y="492" type="line"/>
      <point x="330" y="492" type="line"/>
      <point x="330" y="463" type="line"/>
      <point x="386" y="463"/>
      <point x="390" y="458"/>
      <point x="390" y="396" type="curve" smooth="yes"/>
      <point x="390" y="195" type="line" smooth="yes"/>
      <point x="390" y="105"/>
      <point x="351" y="33"/>
      <point x="257" y="33" type="curve" smooth="yes"/>
      <point x="177" y="33"/>
      <point x="148" y="86"/>
      <point x="148" y="181" type="curve" smooth="yes"/>
      <point x="148" y="492" type="line"/>
      <point x="26" y="492" type="line"/>
      <point x="26" y="463" type="line"/>
      <point x="81" y="463"/>
      <point x="86" y="459"/>
      <point x="86" y="398" type="curve" smooth="yes"/>
      <point x="86" y="176" type="line" smooth="yes"/>
      <point x="86" y="55"/>
      <point x="133" y="-8"/>
      <point x="239" y="-8" type="curve" smooth="yes"/>
      <point x="318" y="-8"/>
      <point x="370" y="29"/>
      <point x="396" y="89" type="curve"/>
      <point x="401" y="89" type="line"/>
      <point x="418" y="33"/>
      <point x="457" y="-8"/>
      <point x="543" y="-8" type="curve" smooth="yes"/>
      <point x="610" y="-8"/>
      <point x="662" y="18"/>
      <point x="691" y="87" type="curve"/>
      <point x="696" y="87" type="line"/>
      <point x="702" y="0" type="line"/>
      <point x="816" y="0" type="line"/>
      <point x="816" y="28" type="line"/>
      <point x="761" y="28"/>
      <point x="756" y="34"/>
      <point x="756" y="94" type="curve" smooth="yes"/>
      <point x="756" y="492" type="line"/>
    </contour>
  </outline>
</glyph>
<glyph name="uni0562" format="2">
  <advance width="527"/>
  <unicode hex="0562"/>
  <note>
uni0562
</note>
  <outline>
    <contour>
      <point x="158" y="-169" type="curve" smooth="yes"/>
      <point x="158" y="283" type="line" smooth="yes"/>
      <point x="158" y="370"/>
      <point x="184" y="460"/>
      <point x="275" y="460" type="curve" smooth="yes"/>
      <point x="353" y="460"/>
      <point x="379" y="412"/>
      <point x="379" y="313" type="curve" smooth="yes"/>
      <point x="379" y="216" type="line"/>
      <point x="502" y="216" type="line"/>
      <point x="502" y="245" type="line"/>
      <point x="446" y="245"/>
      <point x="442" y="250"/>
      <point x="442" y="309" type="curve" smooth="yes"/>
      <point x="442" y="324" type="line" smooth="yes"/>
      <point x="442" y="442"/>
      <point x="395" y="502"/>
      <point x="296" y="502" type="curve" smooth="yes"/>
      <point x="231" y="502"/>
      <point x="190" y="477"/>
      <point x="160" y="413" type="curve"/>
      <point x="156" y="413" type="line"/>
      <point x="150" y="492" type="line"/>
      <point x="32" y="492" type="line"/>
      <point x="32" y="463" type="line"/>
      <point x="89" y="463"/>
      <point x="95" y="457"/>
      <point x="95" y="396" type="curve" smooth="yes"/>
      <point x="95" y="-265" type="line"/>
      <point x="217" y="-265" type="line"/>
      <point x="217" y="-236" type="line"/>
      <point x="162" y="-236"/>
      <point x="158" y="-231"/>
    </contour>
    <contour>
      <point x="143" y="0" type="line"/>
      <point x="450" y="0" type="line"/>
      <point x="450" y="35" type="line"/>
      <point x="143" y="35" type="line"/>
    </contour>
  </outline>
</glyph>
<glyph name="uni0563" format="2">
  <advance width="579"/>
  <unicode hex="0563"/>
  <note>
uni0563
</note>
  <outline>
    <contour>
      <point x="404" y="492" type="line"/>
      <point x="396" y="401" type="line"/>
      <point x="392" y="401" type="line"/>
      <point x="367" y="466"/>
      <point x="324" y="502"/>
      <point x="251" y="502" type="curve" smooth="yes"/>
      <point x="126" y="502"/>
      <point x="61" y="416"/>
      <point x="61" y="244" type="curve" smooth="yes"/>
      <point x="61" y="70"/>
      <point x="127" y="-10"/>
      <point x="242" y="-10" type="curve" smooth="yes"/>
      <point x="322" y="-10"/>
      <point x="365" y="30"/>
      <point x="392" y="93" type="curve"/>
      <point x="395" y="93" type="line"/>
      <point x="392" y="62"/>
      <point x="392" y="18"/>
      <point x="392" y="-37" type="curve" smooth="yes"/>
      <point x="392" y="-265" type="line"/>
      <point x="513" y="-265" type="line"/>
      <point x="513" y="-237" type="line"/>
      <point x="459" y="-237"/>
      <point x="454" y="-232"/>
      <point x="454" y="-166" type="curve" smooth="yes"/>
      <point x="454" y="492" type="line"/>
    </contour>
    <contour>
      <point x="256" y="29" type="curve" smooth="yes"/>
      <point x="163" y="29"/>
      <point x="124" y="104"/>
      <point x="124" y="243" type="curve" smooth="yes"/>
      <point x="124" y="382"/>
      <point x="164" y="463"/>
      <point x="264" y="463" type="curve" smooth="yes"/>
      <point x="352" y="463"/>
      <point x="393" y="381"/>
      <point x="393" y="244" type="curve" smooth="yes"/>
      <point x="393" y="75"/>
      <point x="329" y="29"/>
    </contour>
    <contour>
      <point x="435" y="0" type="line"/>
      <point x="573" y="0" type="line"/>
      <point x="573" y="37" type="line"/>
      <point x="435" y="37" type="line"/>
    </contour>
  </outline>
</glyph>
<glyph name="uni0564" format="2">
  <advance width="580"/>
  <unicode hex="0564"/>
  <note>
uni0564
</note>
  <outline>
    <contour>
      <point x="457" y="-169" type="curve" smooth="yes"/>
      <point x="457" y="315" type="line" smooth="yes"/>
      <point x="457" y="442"/>
      <point x="409" y="502"/>
      <point x="307" y="502" type="curve" smooth="yes"/>
      <point x="242" y="502"/>
      <point x="197" y="483"/>
      <point x="160" y="409" type="curve"/>
      <point x="156" y="409" type="line"/>
      <point x="150" y="492" type="line"/>
      <point x="32" y="492" type="line"/>
      <point x="32" y="463" type="line"/>
      <point x="89" y="463"/>
      <point x="95" y="457"/>
      <point x="95" y="396" type="curve" smooth="yes"/>
      <point x="95" y="0" type="line"/>
      <point x="217" y="0" type="line"/>
      <point x="217" y="29" type="line"/>
      <point x="162" y="29"/>
      <point x="158" y="34"/>
      <point x="158" y="96" type="curve" smooth="yes"/>
      <point x="158" y="283" type="line" smooth="yes"/>
      <point x="158" y="370"/>
      <point x="184" y="460"/>
      <point x="286" y="460" type="curve" smooth="yes"/>
      <point x="368" y="460"/>
      <point x="394" y="401"/>
      <point x="394" y="313" type="curve" smooth="yes"/>
      <point x="394" y="-265" type="line"/>
      <point x="516" y="-265" type="line"/>
      <point x="516" y="-236" type="line"/>
      <point x="461" y="-236"/>
      <point x="457" y="-231"/>
    </contour>
    <contour>
      <point x="445" y="0" type="line"/>
      <point x="576" y="0" type="line"/>
      <point x="576" y="37" type="line"/>
      <point x="445" y="37" type="line"/>
    </contour>
  </outline>
</glyph>
<glyph name="uni0565" format="2">
  <advance width="543"/>
  <unicode hex="0565"/>
  <note>
uni0565
</note>
  <outline>
    <contour>
      <point x="446" y="317" type="line"/>
      <point x="384" y="317" type="line"/>
      <point x="384" y="209" type="line" smooth="yes"/>
      <point x="384" y="115"/>
      <point x="344" y="31"/>
      <point x="255" y="31" type="curve" smooth="yes"/>
      <point x="172" y="31"/>
      <point x="148" y="96"/>
      <point x="148" y="188" type="curve" smooth="yes"/>
      <point x="148" y="760" type="line"/>
      <point x="27" y="760" type="line"/>
      <point x="27" y="731" type="line"/>
      <point x="81" y="731"/>
      <point x="85" y="726"/>
      <point x="85" y="663" type="curve" smooth="yes"/>
      <point x="85" y="183" type="line" smooth="yes"/>
      <point x="85" y="50"/>
      <point x="136" y="-11"/>
      <point x="236" y="-11" type="curve" smooth="yes"/>
      <point x="313" y="-11"/>
      <point x="350" y="23"/>
      <point x="382" y="86" type="curve"/>
      <point x="386" y="86" type="line"/>
      <point x="391" y="0" type="line"/>
      <point x="506" y="0" type="line"/>
      <point x="506" y="29" type="line"/>
      <point x="454" y="29"/>
      <point x="446" y="35"/>
      <point x="446" y="96" type="curve" smooth="yes"/>
    </contour>
    <contour>
      <point x="132" y="457" type="line"/>
      <point x="507" y="457" type="line"/>
      <point x="507" y="492" type="line"/>
      <point x="132" y="492" type="line"/>
    </contour>
  </outline>
</glyph>
<glyph name="uni0566" format="2">
  <advance width="564"/>
  <unicode hex="0566"/>
  <note>
uni0566
</note>
  <outline>
    <contour>
      <point x="404" y="492" type="line"/>
      <point x="396" y="401" type="line"/>
      <point x="392" y="401" type="line"/>
      <point x="367" y="466"/>
      <point x="324" y="502"/>
      <point x="251" y="502" type="curve" smooth="yes"/>
      <point x="126" y="502"/>
      <point x="61" y="416"/>
      <point x="61" y="244" type="curve" smooth="yes"/>
      <point x="61" y="70"/>
      <point x="127" y="-10"/>
      <point x="242" y="-10" type="curve" smooth="yes"/>
      <point x="322" y="-10"/>
      <point x="365" y="30"/>
      <point x="392" y="93" type="curve"/>
      <point x="395" y="93" type="line"/>
      <point x="392" y="62"/>
      <point x="392" y="18"/>
      <point x="392" y="-37" type="curve" smooth="yes"/>
      <point x="392" y="-265" type="line"/>
      <point x="454" y="-265" type="line"/>
      <point x="454" y="492" type="line"/>
    </contour>
    <contour>
      <point x="256" y="29" type="curve" smooth="yes"/>
      <point x="163" y="29"/>
      <point x="124" y="104"/>
      <point x="124" y="243" type="curve" smooth="yes"/>
      <point x="124" y="382"/>
      <point x="164" y="463"/>
      <point x="264" y="463" type="curve" smooth="yes"/>
      <point x="352" y="463"/>
      <point x="393" y="381"/>
      <point x="393" y="244" type="curve" smooth="yes"/>
      <point x="393" y="75"/>
      <point x="329" y="29"/>
    </contour>
    <contour>
      <point x="441" y="-265" type="line"/>
      <point x="579" y="-265" type="line"/>
      <point x="579" y="-228" type="line"/>
      <point x="441" y="-228" type="line"/>
    </contour>
  </outline>
</glyph>
<glyph name="uni0567" format="2">
  <advance width="444"/>
  <unicode hex="0567"/>
  <note>
uni0567
</note>
  <outline>
    <contour>
      <point x="398" y="457" type="line"/>
      <point x="398" y="492" type="line"/>
      <point x="151" y="492" type="line"/>
      <point x="151" y="760" type="line"/>
      <point x="30" y="760" type="line"/>
      <point x="30" y="732" type="line"/>
      <point x="84" y="732"/>
      <point x="88" y="726"/>
      <point x="88" y="666" type="curve" smooth="yes"/>
      <point x="88" y="12" type="line"/>
      <point x="103" y="0" type="line"/>
      <point x="114" y="0" type="line"/>
      <point x="151" y="21"/>
      <point x="212" y="29"/>
      <point x="252" y="29" type="curve" smooth="yes"/>
      <point x="309" y="29"/>
      <point x="339" y="11"/>
      <point x="339" y="-29" type="curve" smooth="yes"/>
      <point x="339" y="-82"/>
      <point x="279" y="-110"/>
      <point x="176" y="-110" type="curve"/>
      <point x="176" y="-129"/>
      <point x="197" y="-145"/>
      <point x="230" y="-145" type="curve" smooth="yes"/>
      <point x="325" y="-145"/>
      <point x="396" y="-102"/>
      <point x="396" y="-31" type="curve" smooth="yes"/>
      <point x="396" y="31"/>
      <point x="353" y="68"/>
      <point x="268" y="68" type="curve" smooth="yes"/>
      <point x="231" y="68"/>
      <point x="183" y="61"/>
      <point x="151" y="42" type="curve"/>
      <point x="151" y="457" type="line"/>
    </contour>
  </outline>
</glyph>
<glyph name="uni0569" format="2">
  <advance width="590"/>
  <unicode hex="0569"/>
  <note>
uni0569
</note>
  <outline>
    <contour>
      <point x="107" y="-265" type="line"/>
      <point x="232" y="-265" type="line"/>
      <point x="232" y="-237" type="line"/>
      <point x="174" y="-237"/>
      <point x="169" y="-231"/>
      <point x="169" y="-164" type="curve" smooth="yes"/>
      <point x="169" y="246" type="line" smooth="yes"/>
      <point x="169" y="377"/>
      <point x="217" y="463"/>
      <point x="315" y="463" type="curve" smooth="yes"/>
      <point x="413" y="463"/>
      <point x="457" y="386"/>
      <point x="457" y="244" type="curve" smooth="yes"/>
      <point x="457" y="71"/>
      <point x="436" y="25"/>
      <point x="389" y="25" type="curve" smooth="yes"/>
      <point x="350" y="25"/>
      <point x="326" y="53"/>
      <point x="326" y="125" type="curve" smooth="yes"/>
      <point x="326" y="183"/>
      <point x="349" y="227"/>
      <point x="410" y="227" type="curve" smooth="yes"/>
      <point x="455" y="227"/>
      <point x="516" y="213"/>
      <point x="561" y="192" type="curve"/>
      <point x="574" y="221" type="line"/>
      <point x="520" y="248"/>
      <point x="462" y="262"/>
      <point x="402" y="262" type="curve" smooth="yes"/>
      <point x="320" y="262"/>
      <point x="269" y="214"/>
      <point x="269" y="127" type="curve" smooth="yes"/>
      <point x="269" y="36"/>
      <point x="311" y="-10"/>
      <point x="386" y="-10" type="curve" smooth="yes"/>
      <point x="477" y="-10"/>
      <point x="519" y="59"/>
      <point x="519" y="244" type="curve" smooth="yes"/>
      <point x="519" y="408"/>
      <point x="450" y="502"/>
      <point x="330" y="502" type="curve" smooth="yes"/>
      <point x="251" y="502"/>
      <point x="198" y="465"/>
      <point x="171" y="400" type="curve"/>
      <point x="167" y="400" type="line"/>
      <point x="161" y="492" type="line"/>
      <point x="44" y="492" type="line"/>
      <point x="44" y="464" type="line"/>
      <point x="98" y="464"/>
      <point x="107" y="457"/>
      <point x="107" y="393" type="curve" smooth="yes"/>
    </contour>
  </outline>
</glyph>
<glyph name="uni056A" format="2">
  <advance width="570"/>
  <unicode hex="056A"/>
  <note>
uni056A
</note>
  <outline>
    <contour>
      <point x="391" y="492" type="line"/>
      <point x="278" y="492" type="line" smooth="yes"/>
      <point x="156" y="492"/>
      <point x="56" y="417"/>
      <point x="56" y="243" type="curve" smooth="yes"/>
      <point x="56" y="77"/>
      <point x="127" y="-10"/>
      <point x="254" y="-10" type="curve" smooth="yes"/>
      <point x="393" y="-10"/>
      <point x="453" y="91"/>
      <point x="453" y="241" type="curve" smooth="yes"/>
      <point x="453" y="760" type="line"/>
      <point x="327" y="760" type="line"/>
      <point x="327" y="732" type="line"/>
      <point x="387" y="732"/>
      <point x="391" y="726"/>
      <point x="391" y="665" type="curve" smooth="yes"/>
    </contour>
    <contour>
      <point x="280" y="457" type="curve" smooth="yes"/>
      <point x="391" y="457" type="line"/>
      <point x="391" y="241" type="line" smooth="yes"/>
      <point x="391" y="120"/>
      <point x="366" y="25"/>
      <point x="258" y="25" type="curve" smooth="yes"/>
      <point x="161" y="25"/>
      <point x="119" y="117"/>
      <point x="119" y="244" type="curve" smooth="yes"/>
      <point x="119" y="402"/>
      <point x="200" y="457"/>
    </contour>
    <contour>
      <point x="445" y="492" type="line"/>
      <point x="445" y="457" type="line"/>
      <point x="564" y="457" type="line"/>
      <point x="564" y="492" type="line"/>
    </contour>
  </outline>
</glyph>
<glyph name="uni056B" format="2">
  <advance width="543"/>
  <unicode hex="056B"/>
  <note>
uni056B
</note>
  <outline>
    <contour>
      <point x="516" y="29" type="line"/>
      <point x="461" y="29"/>
      <point x="457" y="34"/>
      <point x="457" y="97" type="curve" smooth="yes"/>
      <point x="457" y="315" type="line" smooth="yes"/>
      <point x="457" y="442"/>
      <point x="409" y="502"/>
      <point x="307" y="502" type="curve" smooth="yes"/>
      <point x="242" y="502"/>
      <point x="196" y="484"/>
      <point x="159" y="409" type="curve"/>
      <point x="154" y="409" type="line"/>
      <point x="156" y="437"/>
      <point x="158" y="465"/>
      <point x="158" y="494" type="curve" smooth="yes"/>
      <point x="158" y="760" type="line"/>
      <point x="32" y="760" type="line"/>
      <point x="32" y="731" type="line"/>
      <point x="89" y="731"/>
      <point x="95" y="725"/>
      <point x="95" y="664" type="curve" smooth="yes"/>
      <point x="95" y="-265" type="line"/>
      <point x="217" y="-265" type="line"/>
      <point x="217" y="-236" type="line"/>
      <point x="162" y="-236"/>
      <point x="158" y="-231"/>
      <point x="158" y="-169" type="curve" smooth="yes"/>
      <point x="158" y="283" type="line" smooth="yes"/>
      <point x="158" y="370"/>
      <point x="184" y="460"/>
      <point x="286" y="460" type="curve" smooth="yes"/>
      <point x="368" y="460"/>
      <point x="394" y="401"/>
      <point x="394" y="313" type="curve" smooth="yes"/>
      <point x="394" y="0" type="line"/>
      <point x="516" y="0" type="line"/>
    </contour>
  </outline>
</glyph>
<glyph name="uni056C" format="2">
  <advance width="261"/>
  <unicode hex="056C"/>
  <note>
uni056C
</note>
  <outline>
    <contour>
      <point x="280" y="-164" type="line"/>
      <point x="248" y="-164" type="line"/>
      <point x="248" y="-227"/>
      <point x="242" y="-230"/>
      <point x="194" y="-230" type="curve" smooth="yes"/>
      <point x="152" y="-230" type="line"/>
      <point x="152" y="492" type="line"/>
      <point x="27" y="492" type="line"/>
      <point x="27" y="463" type="line"/>
      <point x="49" y="463" type="line" smooth="yes"/>
      <point x="84" y="463"/>
      <point x="89" y="457"/>
      <point x="89" y="418" type="curve" smooth="yes"/>
      <point x="89" y="-265" type="line"/>
      <point x="280" y="-265" type="line"/>
    </contour>
  </outline>
</glyph>
<glyph name="uni056D" format="2">
  <advance width="850"/>
  <unicode hex="056D"/>
  <note>
uni056D
</note>
  <outline>
    <contour>
      <point x="755" y="96" type="curve" smooth="yes"/>
      <point x="755" y="492" type="line"/>
      <point x="633" y="492" type="line"/>
      <point x="633" y="463" type="line"/>
      <point x="690" y="463"/>
      <point x="693" y="458"/>
      <point x="693" y="396" type="curve" smooth="yes"/>
      <point x="693" y="209" type="line" smooth="yes"/>
      <point x="693" y="115"/>
      <point x="653" y="31"/>
      <point x="564" y="31" type="curve" smooth="yes"/>
      <point x="481" y="31"/>
      <point x="457" y="96"/>
      <point x="457" y="188" type="curve" smooth="yes"/>
      <point x="457" y="315" type="line" smooth="yes"/>
      <point x="457" y="442"/>
      <point x="409" y="502"/>
      <point x="307" y="502" type="curve" smooth="yes"/>
      <point x="242" y="502"/>
      <point x="195" y="481"/>
      <point x="159" y="409" type="curve"/>
      <point x="154" y="409" type="line"/>
      <point x="156" y="436"/>
      <point x="158" y="463"/>
      <point x="158" y="490" type="curve" smooth="yes"/>
      <point x="158" y="760" type="line"/>
      <point x="32" y="760" type="line"/>
      <point x="32" y="731" type="line"/>
      <point x="89" y="731"/>
      <point x="95" y="725"/>
      <point x="95" y="664" type="curve" smooth="yes"/>
      <point x="95" y="-265" type="line"/>
      <point x="217" y="-265" type="line"/>
      <point x="217" y="-236" type="line"/>
      <point x="162" y="-236"/>
      <point x="158" y="-231"/>
      <point x="158" y="-169" type="curve" smooth="yes"/>
      <point x="158" y="283" type="line" smooth="yes"/>
      <point x="158" y="370"/>
      <point x="184" y="460"/>
      <point x="286" y="460" type="curve" smooth="yes"/>
      <point x="368" y="460"/>
      <point x="394" y="401"/>
      <point x="394" y="313" type="curve" smooth="yes"/>
      <point x="394" y="183" type="line" smooth="yes"/>
      <point x="394" y="50"/>
      <point x="445" y="-11"/>
      <point x="545" y="-11" type="curve" smooth="yes"/>
      <point x="622" y="-11"/>
      <point x="659" y="23"/>
      <point x="691" y="86" type="curve"/>
      <point x="695" y="86" type="line"/>
      <point x="700" y="0" type="line"/>
      <point x="815" y="0" type="line"/>
      <point x="815" y="29" type="line"/>
      <point x="763" y="29"/>
      <point x="755" y="35"/>
    </contour>
  </outline>
</glyph>
<glyph name="uni056E" format="2">
  <advance width="538"/>
  <unicode hex="056E"/>
  <note>
uni056E
</note>
  <outline>
    <contour>
      <point x="263" y="-10" type="curve" smooth="yes"/>
      <point x="392" y="-10"/>
      <point x="472" y="80"/>
      <point x="472" y="226" type="curve" smooth="yes"/>
      <point x="472" y="322"/>
      <point x="446" y="386"/>
      <point x="392" y="457" type="curve"/>
      <point x="522" y="457" type="line"/>
      <point x="522" y="492" type="line"/>
      <point x="288" y="492" type="line" smooth="yes"/>
      <point x="158" y="492"/>
      <point x="55" y="406"/>
      <point x="55" y="220" type="curve" smooth="yes"/>
      <point x="55" y="66"/>
      <point x="133" y="-10"/>
    </contour>
    <contour>
      <point x="262" y="26" type="curve" smooth="yes"/>
      <point x="172" y="26"/>
      <point x="118" y="86"/>
      <point x="118" y="220" type="curve" smooth="yes"/>
      <point x="118" y="382"/>
      <point x="184" y="457"/>
      <point x="303" y="457" type="curve" smooth="yes"/>
      <point x="324" y="457" type="line"/>
      <point x="380" y="393"/>
      <point x="410" y="318"/>
      <point x="410" y="226" type="curve" smooth="yes"/>
      <point x="410" y="91"/>
      <point x="347" y="26"/>
    </contour>
    <contour>
      <point x="309" y="480" type="curve"/>
      <point x="376" y="480" type="line"/>
      <point x="355" y="502"/>
      <point x="331" y="531"/>
      <point x="290" y="581" type="curve" smooth="yes"/>
      <point x="241" y="641"/>
      <point x="230" y="667"/>
      <point x="230" y="692" type="curve" smooth="yes"/>
      <point x="230" y="717"/>
      <point x="240" y="738"/>
      <point x="291" y="738" type="curve"/>
      <point x="284" y="760"/>
      <point x="267" y="770"/>
      <point x="245" y="770" type="curve" smooth="yes"/>
      <point x="203" y="770"/>
      <point x="172" y="740"/>
      <point x="172" y="694" type="curve" smooth="yes"/>
      <point x="172" y="668"/>
      <point x="180" y="636"/>
      <point x="229" y="574" type="curve" smooth="yes"/>
      <point x="252" y="545"/>
      <point x="278" y="513"/>
    </contour>
  </outline>
</glyph>
<glyph name="uni056F" format="2">
  <advance width="540"/>
  <unicode hex="056F"/>
  <note>
uni056F
</note>
  <outline>
    <contour>
      <point x="384" y="-265" type="line"/>
      <point x="506" y="-265" type="line"/>
      <point x="506" y="-236" type="line"/>
      <point x="454" y="-236"/>
      <point x="446" y="-230"/>
      <point x="446" y="-169" type="curve" smooth="yes"/>
      <point x="446" y="492" type="line"/>
      <point x="324" y="492" type="line"/>
      <point x="324" y="463" type="line"/>
      <point x="381" y="463"/>
      <point x="384" y="458"/>
      <point x="384" y="396" type="curve" smooth="yes"/>
      <point x="384" y="209" type="line" smooth="yes"/>
      <point x="384" y="115"/>
      <point x="344" y="31"/>
      <point x="255" y="31" type="curve" smooth="yes"/>
      <point x="172" y="31"/>
      <point x="148" y="96"/>
      <point x="148" y="188" type="curve" smooth="yes"/>
      <point x="148" y="760" type="line"/>
      <point x="27" y="760" type="line"/>
      <point x="27" y="731" type="line"/>
      <point x="81" y="731"/>
      <point x="85" y="726"/>
      <point x="85" y="663" type="curve" smooth="yes"/>
      <point x="85" y="183" type="line" smooth="yes"/>
      <point x="85" y="50"/>
      <point x="136" y="-11"/>
      <point x="236" y="-11" type="curve" smooth="yes"/>
      <point x="313" y="-11"/>
      <point x="350" y="23"/>
      <point x="382" y="86" type="curve"/>
      <point x="387" y="86" type="line"/>
      <point x="385" y="61"/>
      <point x="384" y="37"/>
      <point x="384" y="10" type="curve" smooth="yes"/>
    </contour>
  </outline>
</glyph>
<glyph name="uni0570" format="2">
  <advance width="509"/>
  <unicode hex="0570"/>
  <note>
uni0570
</note>
  <outline>
    <contour>
      <point x="117" y="172" type="line"/>
      <point x="120" y="239"/>
      <point x="160" y="320"/>
      <point x="248" y="320" type="curve" smooth="yes"/>
      <point x="336" y="320"/>
      <point x="364" y="265"/>
      <point x="364" y="174" type="curve" smooth="yes"/>
      <point x="364" y="0" type="line"/>
      <point x="485" y="0" type="line"/>
      <point x="485" y="29" type="line"/>
      <point x="430" y="29"/>
      <point x="426" y="34"/>
      <point x="426" y="100" type="curve" smooth="yes"/>
      <point x="426" y="177" type="line" smooth="yes"/>
      <point x="426" y="302"/>
      <point x="381" y="362"/>
      <point x="266" y="362" type="curve" smooth="yes"/>
      <point x="209" y="362"/>
      <point x="158" y="339"/>
      <point x="122" y="269" type="curve"/>
      <point x="118" y="269" type="line"/>
      <point x="129" y="612"/>
      <point x="221" y="733"/>
      <point x="336" y="733" type="curve" smooth="yes"/>
      <point x="398" y="733"/>
      <point x="428" y="704"/>
      <point x="428" y="626" type="curve"/>
      <point x="463" y="626"/>
      <point x="484" y="637"/>
      <point x="484" y="668" type="curve" smooth="yes"/>
      <point x="484" y="725"/>
      <point x="436" y="768"/>
      <point x="343" y="768" type="curve" smooth="yes"/>
      <point x="172" y="768"/>
      <point x="55" y="615"/>
      <point x="55" y="188" type="curve"/>
    </contour>
  </outline>
</glyph>
<glyph name="uni0571" format="2">
  <advance width="540"/>
  <unicode hex="0571"/>
  <note>
uni0571
</note>
  <outline>
    <contour>
      <point x="225" y="-10" type="curve" smooth="yes"/>
      <point x="325" y="-10"/>
      <point x="385" y="44"/>
      <point x="419" y="114" type="curve"/>
      <point x="401" y="134" type="line"/>
      <point x="371" y="75"/>
      <point x="320" y="32"/>
      <point x="239" y="32" type="curve" smooth="yes"/>
      <point x="166" y="32"/>
      <point x="111" y="69"/>
      <point x="111" y="166" type="curve" smooth="yes"/>
      <point x="111" y="265"/>
      <point x="146" y="330"/>
      <point x="295" y="438" type="curve" smooth="yes"/>
      <point x="462" y="559"/>
      <point x="469" y="572"/>
      <point x="469" y="599" type="curve" smooth="yes"/>
      <point x="469" y="636"/>
      <point x="452" y="652"/>
      <point x="286" y="680" type="curve" smooth="yes"/>
      <point x="149" y="703"/>
      <point x="130" y="717"/>
      <point x="130" y="771" type="curve"/>
      <point x="94" y="771"/>
      <point x="76" y="754"/>
      <point x="76" y="727" type="curve" smooth="yes"/>
      <point x="76" y="682"/>
      <point x="100" y="662"/>
      <point x="265" y="638" type="curve" smooth="yes"/>
      <point x="403" y="618"/>
      <point x="412" y="604"/>
      <point x="412" y="589" type="curve" smooth="yes"/>
      <point x="412" y="576"/>
      <point x="397" y="556"/>
      <point x="266" y="463" type="curve" smooth="yes"/>
      <point x="82" y="332"/>
      <point x="48" y="274"/>
      <point x="48" y="160" type="curve" smooth="yes"/>
      <point x="48" y="45"/>
      <point x="119" y="-10"/>
    </contour>
    <contour>
      <point x="333" y="491" type="line"/>
      <point x="282" y="459" type="line"/>
      <point x="401" y="83" type="line"/>
      <point x="405" y="83" type="line"/>
      <point x="433" y="0" type="line"/>
      <point x="531" y="0" type="line"/>
      <point x="531" y="29" type="line"/>
      <point x="482" y="29"/>
      <point x="478" y="35"/>
      <point x="459" y="95" type="curve" smooth="yes"/>
    </contour>
  </outline>
</glyph>
<glyph name="uni0572" format="2">
  <advance width="566"/>
  <unicode hex="0572"/>
  <note>
uni0572
</note>
  <outline>
    <contour>
      <point x="307" y="502" type="curve" smooth="yes"/>
      <point x="242" y="502"/>
      <point x="197" y="483"/>
      <point x="160" y="409" type="curve"/>
      <point x="156" y="409" type="line"/>
      <point x="150" y="492" type="line"/>
      <point x="32" y="492" type="line"/>
      <point x="32" y="463" type="line"/>
      <point x="89" y="463"/>
      <point x="95" y="457"/>
      <point x="95" y="396" type="curve" smooth="yes"/>
      <point x="95" y="0" type="line"/>
      <point x="217" y="0" type="line"/>
      <point x="217" y="29" type="line"/>
      <point x="162" y="29"/>
      <point x="158" y="34"/>
      <point x="158" y="96" type="curve" smooth="yes"/>
      <point x="158" y="283" type="line" smooth="yes"/>
      <point x="158" y="370"/>
      <point x="184" y="460"/>
      <point x="286" y="460" type="curve" smooth="yes"/>
      <point x="368" y="460"/>
      <point x="394" y="401"/>
      <point x="394" y="313" type="curve" smooth="yes"/>
      <point x="394" y="-265" type="line"/>
      <point x="457" y="-265" type="line"/>
      <point x="457" y="315" type="line" smooth="yes"/>
      <point x="457" y="442"/>
      <point x="409" y="502"/>
    </contour>
    <contour>
      <point x="409" y="-265" type="line"/>
      <point x="581" y="-265" type="line"/>
      <point x="581" y="-228" type="line"/>
      <point x="409" y="-228" type="line"/>
    </contour>
  </outline>
</glyph>
<glyph name="uni0573" format="2">
  <advance width="543"/>
  <unicode hex="0573"/>
  <note>
uni0573
</note>
  <outline>
    <contour>
      <point x="238" y="-11" type="curve"/>
      <point x="315" y="-11"/>
      <point x="366" y="23"/>
      <point x="398" y="86" type="curve"/>
      <point x="402" y="86" type="line"/>
      <point x="408" y="0" type="line"/>
      <point x="523" y="0" type="line"/>
      <point x="523" y="29" type="line"/>
      <point x="471" y="29"/>
      <point x="463" y="35"/>
      <point x="463" y="96" type="curve" smooth="yes"/>
      <point x="463" y="215" type="line" smooth="yes"/>
      <point x="463" y="411"/>
      <point x="347" y="496"/>
      <point x="29" y="499" type="curve"/>
      <point x="29" y="459" type="line"/>
      <point x="302" y="456"/>
      <point x="400" y="385"/>
      <point x="400" y="212" type="curve" smooth="yes"/>
      <point x="400" y="113"/>
      <point x="355" y="31"/>
      <point x="256" y="31" type="curve" smooth="yes"/>
      <point x="148" y="31"/>
      <point x="118" y="122"/>
      <point x="118" y="261" type="curve" smooth="yes"/>
      <point x="118" y="510"/>
      <point x="246" y="734"/>
      <point x="399" y="734" type="curve" smooth="yes"/>
      <point x="469" y="734"/>
      <point x="498" y="705"/>
      <point x="499" y="626" type="curve"/>
      <point x="533" y="626"/>
      <point x="554" y="638"/>
      <point x="554" y="668" type="curve" smooth="yes"/>
      <point x="554" y="725"/>
      <point x="506" y="769"/>
      <point x="400" y="769" type="curve" smooth="yes"/>
      <point x="196" y="769"/>
      <point x="55" y="508"/>
      <point x="55" y="243" type="curve" smooth="yes"/>
      <point x="55" y="65"/>
      <point x="123" y="-11"/>
    </contour>
  </outline>
</glyph>
<glyph name="uni0574" format="2">
  <advance width="542"/>
  <unicode hex="0574"/>
  <note>
uni0574
</note>
  <outline>
    <contour>
      <point x="445" y="96" type="curve" smooth="yes"/>
      <point x="445" y="437" type="line" smooth="yes"/>
      <point x="445" y="498"/>
      <point x="427" y="533"/>
      <point x="398" y="575" type="curve" smooth="yes"/>
      <point x="381" y="599"/>
      <point x="372" y="624"/>
      <point x="372" y="655" type="curve" smooth="yes"/>
      <point x="372" y="703"/>
      <point x="397" y="734"/>
      <point x="445" y="734" type="curve" smooth="yes"/>
      <point x="495" y="734"/>
      <point x="515" y="699"/>
      <point x="515" y="625" type="curve"/>
      <point x="549" y="627"/>
      <point x="572" y="645"/>
      <point x="572" y="676" type="curve" smooth="yes"/>
      <point x="572" y="724"/>
      <point x="526" y="769"/>
      <point x="448" y="769" type="curve" smooth="yes"/>
      <point x="364" y="769"/>
      <point x="315" y="721"/>
      <point x="315" y="650" type="curve" smooth="yes"/>
      <point x="315" y="606"/>
      <point x="328" y="580"/>
      <point x="346" y="552" type="curve" smooth="yes"/>
      <point x="366" y="521"/>
      <point x="383" y="488"/>
      <point x="383" y="435" type="curve" smooth="yes"/>
      <point x="383" y="209" type="line" smooth="yes"/>
      <point x="383" y="115"/>
      <point x="343" y="31"/>
      <point x="254" y="31" type="curve" smooth="yes"/>
      <point x="171" y="31"/>
      <point x="147" y="96"/>
      <point x="147" y="188" type="curve" smooth="yes"/>
      <point x="147" y="492" type="line"/>
      <point x="26" y="492" type="line"/>
      <point x="26" y="463" type="line"/>
      <point x="80" y="463"/>
      <point x="84" y="458"/>
      <point x="84" y="395" type="curve" smooth="yes"/>
      <point x="84" y="183" type="line" smooth="yes"/>
      <point x="84" y="50"/>
      <point x="135" y="-11"/>
      <point x="235" y="-11" type="curve" smooth="yes"/>
      <point x="312" y="-11"/>
      <point x="349" y="23"/>
      <point x="381" y="86" type="curve"/>
      <point x="385" y="86" type="line"/>
      <point x="390" y="0" type="line"/>
      <point x="505" y="0" type="line"/>
      <point x="505" y="29" type="line"/>
      <point x="453" y="29"/>
      <point x="445" y="35"/>
    </contour>
  </outline>
</glyph>
<glyph name="uni0575" format="2">
  <advance width="242"/>
  <unicode hex="0575"/>
  <note>
uni0575
</note>
  <outline>
    <contour>
      <point x="91" y="90" type="line" smooth="yes"/>
      <point x="91" y="-24"/>
      <point x="133" y="-59"/>
      <point x="133" y="-151" type="curve" smooth="yes"/>
      <point x="133" y="-209"/>
      <point x="106" y="-230"/>
      <point x="49" y="-230" type="curve" smooth="yes"/>
      <point x="41" y="-230" type="line"/>
      <point x="41" y="-265" type="line"/>
      <point x="54" y="-265" type="line" smooth="yes"/>
      <point x="153" y="-265"/>
      <point x="195" y="-226"/>
      <point x="195" y="-149" type="curve" smooth="yes"/>
      <point x="195" y="-50"/>
      <point x="154" y="-17"/>
      <point x="154" y="90" type="curve" smooth="yes"/>
      <point x="154" y="492" type="line"/>
      <point x="29" y="492" type="line"/>
      <point x="29" y="463" type="line"/>
      <point x="51" y="463" type="line" smooth="yes"/>
      <point x="86" y="463"/>
      <point x="91" y="457"/>
      <point x="91" y="418" type="curve" smooth="yes"/>
    </contour>
  </outline>
</glyph>
<glyph name="uni0576" format="2">
  <advance width="549"/>
  <unicode hex="0576"/>
  <note>
uni0576
</note>
  <outline>
    <contour>
      <point x="231" y="-11" type="curve" smooth="yes"/>
      <point x="305" y="-11"/>
      <point x="345" y="6"/>
      <point x="388" y="81" type="curve"/>
      <point x="392" y="81" type="line"/>
      <point x="397" y="0" type="line"/>
      <point x="515" y="0" type="line"/>
      <point x="515" y="29" type="line"/>
      <point x="459" y="29"/>
      <point x="452" y="35"/>
      <point x="452" y="96" type="curve" smooth="yes"/>
      <point x="452" y="492" type="line"/>
      <point x="330" y="492" type="line"/>
      <point x="330" y="463" type="line"/>
      <point x="387" y="463"/>
      <point x="390" y="458"/>
      <point x="390" y="396" type="curve" smooth="yes"/>
      <point x="390" y="209" type="line" smooth="yes"/>
      <point x="390" y="122"/>
      <point x="354" y="31"/>
      <point x="244" y="31" type="curve" smooth="yes"/>
      <point x="161" y="31"/>
      <point x="121" y="101"/>
      <point x="121" y="197" type="curve" smooth="yes"/>
      <point x="121" y="317"/>
      <point x="155" y="429"/>
      <point x="221" y="555" type="curve"/>
      <point x="175" y="573" type="line"/>
      <point x="99" y="444"/>
      <point x="58" y="319"/>
      <point x="58" y="192" type="curve" smooth="yes"/>
      <point x="58" y="56"/>
      <point x="129" y="-11"/>
    </contour>
    <contour>
      <point x="221" y="570" type="line"/>
      <point x="161" y="582"/>
      <point x="129" y="606"/>
      <point x="129" y="658" type="curve" smooth="yes"/>
      <point x="129" y="706"/>
      <point x="148" y="735"/>
      <point x="250" y="735" type="curve"/>
      <point x="247" y="759"/>
      <point x="230" y="772"/>
      <point x="192" y="772" type="curve" smooth="yes"/>
      <point x="121" y="772"/>
      <point x="75" y="727"/>
      <point x="75" y="663" type="curve" smooth="yes"/>
      <point x="75" y="598"/>
      <point x="110" y="562"/>
      <point x="169" y="544" type="curve"/>
      <point x="221" y="555" type="line"/>
    </contour>
  </outline>
</glyph>
<glyph name="uni0577" format="2">
  <advance width="455"/>
  <unicode hex="0577"/>
  <note>
uni0577
</note>
  <outline>
    <contour>
      <point x="216" y="500" type="curve" smooth="yes"/>
      <point x="100" y="500"/>
      <point x="38" y="421"/>
      <point x="38" y="356" type="curve" smooth="yes"/>
      <point x="38" y="320"/>
      <point x="59" y="303"/>
      <point x="93" y="303" type="curve"/>
      <point x="93" y="398"/>
      <point x="132" y="465"/>
      <point x="216" y="465" type="curve" smooth="yes"/>
      <point x="292" y="465"/>
      <point x="338" y="417"/>
      <point x="338" y="335" type="curve" smooth="yes"/>
      <point x="338" y="246"/>
      <point x="309" y="168"/>
      <point x="216" y="50" type="curve" smooth="yes"/>
      <point x="70" y="-134"/>
      <point x="56" y="-171"/>
      <point x="56" y="-214" type="curve" smooth="yes"/>
      <point x="56" y="-246"/>
      <point x="75" y="-265"/>
      <point x="116" y="-265" type="curve" smooth="yes"/>
      <point x="378" y="-265" type="line"/>
      <point x="378" y="-225" type="line"/>
      <point x="157" y="-225" type="line" smooth="yes"/>
      <point x="128" y="-225"/>
      <point x="121" y="-217"/>
      <point x="121" y="-199" type="curve" smooth="yes"/>
      <point x="121" y="-162"/>
      <point x="130" y="-140"/>
      <point x="274" y="42" type="curve" smooth="yes"/>
      <point x="381" y="177"/>
      <point x="401" y="245"/>
      <point x="401" y="329" type="curve" smooth="yes"/>
      <point x="401" y="442"/>
      <point x="327" y="500"/>
    </contour>
  </outline>
</glyph>
<glyph name="uni0578" format="2">
  <advance width="542"/>
  <unicode hex="0578"/>
  <note>
uni0578
</note>
  <anchor x="276" y="492" name="top"/>
  <outline>
    <contour>
      <point x="516" y="29" type="line"/>
      <point x="461" y="29"/>
      <point x="457" y="34"/>
      <point x="457" y="97" type="curve" smooth="yes"/>
      <point x="457" y="315" type="line" smooth="yes"/>
      <point x="457" y="442"/>
      <point x="409" y="502"/>
      <point x="307" y="502" type="curve" smooth="yes"/>
      <point x="242" y="502"/>
      <point x="197" y="483"/>
      <point x="160" y="409" type="curve"/>
      <point x="156" y="409" type="line"/>
      <point x="150" y="492" type="line"/>
      <point x="32" y="492" type="line"/>
      <point x="32" y="463" type="line"/>
      <point x="89" y="463"/>
      <point x="95" y="457"/>
      <point x="95" y="396" type="curve" smooth="yes"/>
      <point x="95" y="0" type="line"/>
      <point x="217" y="0" type="line"/>
      <point x="217" y="29" type="line"/>
      <point x="162" y="29"/>
      <point x="158" y="34"/>
      <point x="158" y="96" type="curve" smooth="yes"/>
      <point x="158" y="283" type="line" smooth="yes"/>
      <point x="158" y="370"/>
      <point x="184" y="460"/>
      <point x="286" y="460" type="curve" smooth="yes"/>
      <point x="368" y="460"/>
      <point x="394" y="401"/>
      <point x="394" y="313" type="curve" smooth="yes"/>
      <point x="394" y="0" type="line"/>
      <point x="516" y="0" type="line"/>
    </contour>
  </outline>
</glyph>
<glyph name="uni0579" format="2">
  <advance width="303"/>
  <unicode hex="0579"/>
  <note>
uni0579
</note>
  <outline>
    <contour>
      <point x="271" y="282" type="line"/>
      <point x="217" y="293" type="line"/>
      <point x="97" y="64" type="line" smooth="yes"/>
      <point x="-13" y="-147"/>
      <point x="-30" y="-180"/>
      <point x="-30" y="-214" type="curve" smooth="yes"/>
      <point x="-30" y="-246"/>
      <point x="-11" y="-265"/>
      <point x="30" y="-265" type="curve" smooth="yes"/>
      <point x="270" y="-265" type="line"/>
      <point x="270" y="-225" type="line"/>
      <point x="71" y="-225" type="line" smooth="yes"/>
      <point x="42" y="-225"/>
      <point x="36" y="-217"/>
      <point x="36" y="-199" type="curve" smooth="yes"/>
      <point x="36" y="-175"/>
      <point x="42" y="-158"/>
      <point x="143" y="36" type="curve" smooth="yes"/>
    </contour>
    <contour>
      <point x="118" y="492" type="curve"/>
      <point x="75" y="492" type="line"/>
      <point x="50" y="467"/>
      <point x="36" y="430"/>
      <point x="36" y="406" type="curve" smooth="yes"/>
      <point x="36" y="370"/>
      <point x="52" y="342"/>
      <point x="88" y="322" type="curve" smooth="yes"/>
      <point x="219" y="248" type="line"/>
      <point x="272" y="282" type="line"/>
      <point x="127" y="366" type="line" smooth="yes"/>
      <point x="97" y="383"/>
      <point x="91" y="398"/>
      <point x="91" y="422" type="curve" smooth="yes"/>
      <point x="91" y="443"/>
      <point x="97" y="463"/>
    </contour>
  </outline>
</glyph>
<glyph name="uni057A" format="2">
  <advance width="807"/>
  <unicode hex="057A"/>
  <note>
uni057A
</note>
  <outline>
    <contour>
      <point x="591" y="492" type="line"/>
      <point x="591" y="463" type="line"/>
      <point x="647" y="463"/>
      <point x="650" y="457"/>
      <point x="650" y="396" type="curve" smooth="yes"/>
      <point x="650" y="209" type="line" smooth="yes"/>
      <point x="650" y="116"/>
      <point x="609" y="34"/>
      <point x="531" y="34" type="curve" smooth="yes"/>
      <point x="456" y="34"/>
      <point x="430" y="87"/>
      <point x="430" y="181" type="curve" smooth="yes"/>
      <point x="430" y="492" type="line"/>
      <point x="308" y="492" type="line"/>
      <point x="308" y="463" type="line"/>
      <point x="363" y="463"/>
      <point x="368" y="458"/>
      <point x="368" y="396" type="curve" smooth="yes"/>
      <point x="368" y="195" type="line" smooth="yes"/>
      <point x="368" y="105"/>
      <point x="336" y="33"/>
      <point x="247" y="33" type="curve" smooth="yes"/>
      <point x="173" y="33"/>
      <point x="148" y="86"/>
      <point x="148" y="181" type="curve" smooth="yes"/>
      <point x="148" y="492" type="line"/>
      <point x="26" y="492" type="line"/>
      <point x="26" y="463" type="line"/>
      <point x="81" y="463"/>
      <point x="86" y="459"/>
      <point x="86" y="398" type="curve" smooth="yes"/>
      <point x="86" y="176" type="line" smooth="yes"/>
      <point x="86" y="55"/>
      <point x="130" y="-8"/>
      <point x="228" y="-8" type="curve" smooth="yes"/>
      <point x="304" y="-8"/>
      <point x="348" y="29"/>
      <point x="374" y="89" type="curve"/>
      <point x="379" y="89" type="line"/>
      <point x="396" y="33"/>
      <point x="432" y="-8"/>
      <point x="510" y="-8" type="curve" smooth="yes"/>
      <point x="567" y="-8"/>
      <point x="619" y="18"/>
      <point x="648" y="87" type="curve"/>
      <point x="654" y="87" type="line"/>
      <point x="652" y="60"/>
      <point x="650" y="34"/>
      <point x="650" y="7" type="curve" smooth="yes"/>
      <point x="650" y="-265" type="line"/>
      <point x="772" y="-265" type="line"/>
      <point x="772" y="-237" type="line"/>
      <point x="717" y="-237"/>
      <point x="713" y="-231"/>
      <point x="713" y="-171" type="curve" smooth="yes"/>
      <point x="713" y="492" type="line"/>
    </contour>
  </outline>
</glyph>
<glyph name="uni057B" format="2">
  <advance width="525"/>
  <unicode hex="057B"/>
  <note>
uni057B
</note>
  <outline>
    <contour>
      <point x="112" y="-265" type="curve" smooth="yes"/>
      <point x="432" y="-265" type="line"/>
      <point x="432" y="-225" type="line"/>
      <point x="156" y="-225" type="line" smooth="yes"/>
      <point x="127" y="-225"/>
      <point x="123" y="-217"/>
      <point x="123" y="-202" type="curve" smooth="yes"/>
      <point x="123" y="-180"/>
      <point x="141" y="-160"/>
      <point x="325" y="42" type="curve" smooth="yes"/>
      <point x="447" y="176"/>
      <point x="471" y="242"/>
      <point x="471" y="329" type="curve" smooth="yes"/>
      <point x="471" y="438"/>
      <point x="385" y="500"/>
      <point x="266" y="500" type="curve" smooth="yes"/>
      <point x="123" y="500"/>
      <point x="54" y="418"/>
      <point x="54" y="315" type="curve" smooth="yes"/>
      <point x="54" y="250"/>
      <point x="74" y="212"/>
      <point x="138" y="153" type="curve" smooth="yes"/>
      <point x="193" y="103"/>
      <point x="214" y="67"/>
      <point x="214" y="29" type="curve" smooth="yes"/>
      <point x="214" y="1"/>
      <point x="202" y="-24"/>
      <point x="173" y="-56" type="curve"/>
      <point x="212" y="-56" type="line"/>
      <point x="245" y="-18"/>
      <point x="259" y="14"/>
      <point x="259" y="46" type="curve" smooth="yes"/>
      <point x="259" y="89"/>
      <point x="231" y="130"/>
      <point x="183" y="181" type="curve" smooth="yes"/>
      <point x="135" y="231"/>
      <point x="117" y="254"/>
      <point x="117" y="318" type="curve" smooth="yes"/>
      <point x="117" y="397"/>
      <point x="159" y="465"/>
      <point x="265" y="465" type="curve" smooth="yes"/>
      <point x="349" y="465"/>
      <point x="408" y="414"/>
      <point x="408" y="330" type="curve" smooth="yes"/>
      <point x="408" y="231"/>
      <point x="379" y="167"/>
      <point x="270" y="49" type="curve" smooth="yes"/>
      <point x="80" y="-157"/>
      <point x="59" y="-185"/>
      <point x="59" y="-220" type="curve" smooth="yes"/>
      <point x="59" y="-246"/>
      <point x="72" y="-265"/>
    </contour>
  </outline>
</glyph>
<glyph name="uni057C" format="2">
  <advance width="559"/>
  <unicode hex="057C"/>
  <note>
uni057C
</note>
  <outline>
    <contour>
      <point x="335" y="0" type="line"/>
      <point x="559" y="0" type="line"/>
      <point x="559" y="37" type="line"/>
      <point x="335" y="37" type="line"/>
    </contour>
    <contour>
      <point x="304" y="502" type="curve" smooth="yes"/>
      <point x="237" y="502"/>
      <point x="196" y="481"/>
      <point x="160" y="411" type="curve"/>
      <point x="156" y="411" type="line"/>
      <point x="150" y="492" type="line"/>
      <point x="32" y="492" type="line"/>
      <point x="32" y="463" type="line"/>
      <point x="89" y="463"/>
      <point x="95" y="457"/>
      <point x="95" y="396" type="curve" smooth="yes"/>
      <point x="95" y="0" type="line"/>
      <point x="158" y="0" type="line"/>
      <point x="158" y="283" type="line" smooth="yes"/>
      <point x="158" y="384"/>
      <point x="193" y="460"/>
      <point x="281" y="460" type="curve" smooth="yes"/>
      <point x="358" y="460"/>
      <point x="391" y="406"/>
      <point x="391" y="316" type="curve" smooth="yes"/>
      <point x="391" y="211"/>
      <point x="360" y="109"/>
      <point x="295" y="0" type="curve"/>
      <point x="343" y="0" type="line"/>
      <point x="421" y="108"/>
      <point x="454" y="200"/>
      <point x="454" y="319" type="curve" smooth="yes"/>
      <point x="454" y="437"/>
      <point x="393" y="502"/>
    </contour>
  </outline>
</glyph>
<glyph name="uni057D" format="2">
  <advance width="540"/>
  <unicode hex="057D"/>
  <note>
uni057D
</note>
  <outline>
    <contour>
      <point x="236" y="-11" type="curve" smooth="yes"/>
      <point x="313" y="-11"/>
      <point x="350" y="23"/>
      <point x="382" y="86" type="curve"/>
      <point x="386" y="86" type="line"/>
      <point x="391" y="0" type="line"/>
      <point x="506" y="0" type="line"/>
      <point x="506" y="29" type="line"/>
      <point x="454" y="29"/>
      <point x="446" y="35"/>
      <point x="446" y="96" type="curve" smooth="yes"/>
      <point x="446" y="492" type="line"/>
      <point x="324" y="492" type="line"/>
      <point x="324" y="463" type="line"/>
      <point x="381" y="463"/>
      <point x="384" y="458"/>
      <point x="384" y="396" type="curve" smooth="yes"/>
      <point x="384" y="209" type="line" smooth="yes"/>
      <point x="384" y="115"/>
      <point x="344" y="31"/>
      <point x="255" y="31" type="curve" smooth="yes"/>
      <point x="172" y="31"/>
      <point x="148" y="96"/>
      <point x="148" y="188" type="curve" smooth="yes"/>
      <point x="148" y="492" type="line"/>
      <point x="27" y="492" type="line"/>
      <point x="27" y="463" type="line"/>
      <point x="81" y="463"/>
      <point x="85" y="458"/>
      <point x="85" y="395" type="curve" smooth="yes"/>
      <point x="85" y="183" type="line" smooth="yes"/>
      <point x="85" y="50"/>
      <point x="136" y="-11"/>
    </contour>
  </outline>
</glyph>
<glyph name="uni057E" format="2">
  <advance width="556"/>
  <unicode hex="057E"/>
  <note>
uni057E
</note>
  <outline>
    <contour>
      <point x="236" y="-11" type="curve" smooth="yes"/>
      <point x="313" y="-11"/>
      <point x="350" y="23"/>
      <point x="382" y="86" type="curve"/>
      <point x="387" y="86" type="line"/>
      <point x="386" y="62"/>
      <point x="384" y="37"/>
      <point x="384" y="13" type="curve" smooth="yes"/>
      <point x="384" y="-265" type="line"/>
      <point x="446" y="-265" type="line"/>
      <point x="446" y="760" type="line"/>
      <point x="324" y="760" type="line"/>
      <point x="324" y="731" type="line"/>
      <point x="381" y="731"/>
      <point x="384" y="726"/>
      <point x="384" y="664" type="curve" smooth="yes"/>
      <point x="384" y="209" type="line" smooth="yes"/>
      <point x="384" y="115"/>
      <point x="344" y="31"/>
      <point x="255" y="31" type="curve" smooth="yes"/>
      <point x="172" y="31"/>
      <point x="148" y="96"/>
      <point x="148" y="188" type="curve" smooth="yes"/>
      <point x="148" y="492" type="line"/>
      <point x="27" y="492" type="line"/>
      <point x="27" y="463" type="line"/>
      <point x="81" y="463"/>
      <point x="85" y="458"/>
      <point x="85" y="395" type="curve" smooth="yes"/>
      <point x="85" y="183" type="line" smooth="yes"/>
      <point x="85" y="50"/>
      <point x="136" y="-11"/>
    </contour>
    <contour>
      <point x="433" y="-265" type="line"/>
      <point x="571" y="-265" type="line"/>
      <point x="571" y="-228" type="line"/>
      <point x="433" y="-228" type="line"/>
    </contour>
  </outline>
</glyph>
<glyph name="uni0580" format="2">
  <advance width="544"/>
  <unicode hex="0580"/>
  <note>
uni0580
</note>
  <outline>
    <contour>
      <point x="513" y="29" type="line"/>
      <point x="458" y="29"/>
      <point x="454" y="34"/>
      <point x="454" y="97" type="curve" smooth="yes"/>
      <point x="454" y="315" type="line" smooth="yes"/>
      <point x="454" y="442"/>
      <point x="406" y="502"/>
      <point x="304" y="502" type="curve" smooth="yes"/>
      <point x="239" y="502"/>
      <point x="194" y="484"/>
      <point x="157" y="409" type="curve"/>
      <point x="153" y="409" type="line"/>
      <point x="147" y="492" type="line"/>
      <point x="29" y="492" type="line"/>
      <point x="29" y="463" type="line"/>
      <point x="86" y="463"/>
      <point x="92" y="457"/>
      <point x="92" y="396" type="curve" smooth="yes"/>
      <point x="92" y="-265" type="line"/>
      <point x="214" y="-265" type="line"/>
      <point x="214" y="-236" type="line"/>
      <point x="159" y="-236"/>
      <point x="155" y="-231"/>
      <point x="155" y="-169" type="curve" smooth="yes"/>
      <point x="155" y="283" type="line" smooth="yes"/>
      <point x="155" y="370"/>
      <point x="181" y="460"/>
      <point x="283" y="460" type="curve" smooth="yes"/>
      <point x="365" y="460"/>
      <point x="391" y="401"/>
      <point x="391" y="313" type="curve" smooth="yes"/>
      <point x="391" y="0" type="line"/>
      <point x="513" y="0" type="line"/>
    </contour>
  </outline>
</glyph>
<glyph name="uni0581" format="2">
  <advance width="530"/>
  <unicode hex="0581"/>
  <note>
uni0581
</note>
  <outline>
    <contour>
      <point x="243" y="-266" type="curve" smooth="yes"/>
      <point x="369" y="-266"/>
      <point x="448" y="-195"/>
      <point x="448" y="-33" type="curve" smooth="yes"/>
      <point x="448" y="492" type="line"/>
      <point x="398" y="492" type="line"/>
      <point x="390" y="401" type="line"/>
      <point x="386" y="401" type="line"/>
      <point x="361" y="466"/>
      <point x="318" y="502"/>
      <point x="245" y="502" type="curve" smooth="yes"/>
      <point x="120" y="502"/>
      <point x="55" y="417"/>
      <point x="55" y="245" type="curve" smooth="yes"/>
      <point x="55" y="71"/>
      <point x="121" y="-10"/>
      <point x="236" y="-10" type="curve" smooth="yes"/>
      <point x="316" y="-10"/>
      <point x="359" y="30"/>
      <point x="386" y="93" type="curve"/>
      <point x="389" y="93" type="line"/>
      <point x="386" y="65"/>
      <point x="386" y="22"/>
      <point x="386" y="-1" type="curve" smooth="yes"/>
      <point x="386" y="-41" type="line" smooth="yes"/>
      <point x="386" y="-177"/>
      <point x="334" y="-232"/>
      <point x="246" y="-232" type="curve" smooth="yes"/>
      <point x="156" y="-232"/>
      <point x="124" y="-186"/>
      <point x="124" y="-98" type="curve"/>
      <point x="94" y="-98"/>
      <point x="77" y="-113"/>
      <point x="77" y="-138" type="curve" smooth="yes"/>
      <point x="77" y="-209"/>
      <point x="124" y="-266"/>
    </contour>
    <contour>
      <point x="250" y="29" type="curve" smooth="yes"/>
      <point x="157" y="29"/>
      <point x="118" y="105"/>
      <point x="118" y="244" type="curve" smooth="yes"/>
      <point x="118" y="383"/>
      <point x="158" y="463"/>
      <point x="258" y="463" type="curve" smooth="yes"/>
      <point x="346" y="463"/>
      <point x="387" y="382"/>
      <point x="387" y="245" type="curve" smooth="yes"/>
      <point x="387" y="77"/>
      <point x="323" y="29"/>
    </contour>
  </outline>
</glyph>
<glyph name="uni0582" format="2">
  <advance width="283"/>
  <unicode hex="0582"/>
  <note>
uni0582
</note>
  <outline>
    <contour>
      <point x="274" y="101" type="line"/>
      <point x="242" y="101" type="line"/>
      <point x="242" y="38"/>
      <point x="236" y="35"/>
      <point x="188" y="35" type="curve" smooth="yes"/>
      <point x="154" y="35" type="line"/>
      <point x="154" y="492" type="line"/>
      <point x="29" y="492" type="line"/>
      <point x="29" y="463" type="line"/>
      <point x="51" y="463" type="line" smooth="yes"/>
      <point x="86" y="463"/>
      <point x="91" y="457"/>
      <point x="91" y="418" type="curve" smooth="yes"/>
      <point x="91" y="0" type="line"/>
      <point x="274" y="0" type="line"/>
    </contour>
  </outline>
</glyph>
<glyph name="uni0583" format="2">
  <advance width="831"/>
  <unicode hex="0583"/>
  <note>
uni0583
</note>
  <outline>
    <contour>
      <point x="745" y="97" type="curve" smooth="yes"/>
      <point x="745" y="315" type="line" smooth="yes"/>
      <point x="745" y="442"/>
      <point x="698" y="502"/>
      <point x="596" y="502" type="curve" smooth="yes"/>
      <point x="530" y="502"/>
      <point x="485" y="483"/>
      <point x="448" y="409" type="curve"/>
      <point x="443" y="409" type="line"/>
      <point x="445" y="435"/>
      <point x="446" y="460"/>
      <point x="446" y="486" type="curve" smooth="yes"/>
      <point x="446" y="760" type="line"/>
      <point x="324" y="760" type="line"/>
      <point x="324" y="731" type="line"/>
      <point x="381" y="731"/>
      <point x="384" y="726"/>
      <point x="384" y="664" type="curve" smooth="yes"/>
      <point x="384" y="209" type="line" smooth="yes"/>
      <point x="384" y="115"/>
      <point x="344" y="31"/>
      <point x="255" y="31" type="curve" smooth="yes"/>
      <point x="172" y="31"/>
      <point x="148" y="96"/>
      <point x="148" y="188" type="curve" smooth="yes"/>
      <point x="148" y="492" type="line"/>
      <point x="27" y="492" type="line"/>
      <point x="27" y="463" type="line"/>
      <point x="81" y="463"/>
      <point x="85" y="458"/>
      <point x="85" y="395" type="curve" smooth="yes"/>
      <point x="85" y="183" type="line" smooth="yes"/>
      <point x="85" y="50"/>
      <point x="136" y="-11"/>
      <point x="236" y="-11" type="curve" smooth="yes"/>
      <point x="313" y="-11"/>
      <point x="350" y="23"/>
      <point x="382" y="86" type="curve"/>
      <point x="388" y="86" type="line"/>
      <point x="386" y="62"/>
      <point x="384" y="40"/>
      <point x="384" y="15" type="curve" smooth="yes"/>
      <point x="384" y="-265" type="line"/>
      <point x="506" y="-265" type="line"/>
      <point x="506" y="-236" type="line"/>
      <point x="454" y="-236"/>
      <point x="446" y="-230"/>
      <point x="446" y="-169" type="curve" smooth="yes"/>
      <point x="446" y="283" type="line" smooth="yes"/>
      <point x="446" y="370"/>
      <point x="473" y="460"/>
      <point x="575" y="460" type="curve" smooth="yes"/>
      <point x="656" y="460"/>
      <point x="683" y="401"/>
      <point x="683" y="313" type="curve" smooth="yes"/>
      <point x="683" y="0" type="line"/>
      <point x="805" y="0" type="line"/>
      <point x="805" y="29" type="line"/>
      <point x="749" y="29"/>
      <point x="745" y="34"/>
    </contour>
  </outline>
</glyph>
<glyph name="uni0584" format="2">
  <advance width="559"/>
  <unicode hex="0584"/>
  <note>
uni0584
</note>
  <outline>
    <contour>
      <point x="314" y="502" type="curve" smooth="yes"/>
      <point x="237" y="502"/>
      <point x="192" y="462"/>
      <point x="168" y="399" type="curve"/>
      <point x="165" y="399" type="line"/>
      <point x="158" y="492" type="line"/>
      <point x="44" y="492" type="line"/>
      <point x="44" y="463" type="line"/>
      <point x="98" y="463"/>
      <point x="107" y="457"/>
      <point x="107" y="395" type="curve" smooth="yes"/>
      <point x="107" y="-265" type="line"/>
      <point x="232" y="-265" type="line"/>
      <point x="232" y="-236" type="line"/>
      <point x="177" y="-236"/>
      <point x="169" y="-230"/>
      <point x="169" y="-162" type="curve" smooth="yes"/>
      <point x="169" y="-37" type="line" smooth="yes"/>
      <point x="169" y="18"/>
      <point x="169" y="70"/>
      <point x="165" y="92" type="curve"/>
      <point x="169" y="92" type="line"/>
      <point x="193" y="31"/>
      <point x="238" y="-10"/>
      <point x="323" y="-10" type="curve" smooth="yes"/>
      <point x="438" y="-10"/>
      <point x="504" y="68"/>
      <point x="504" y="244" type="curve" smooth="yes"/>
      <point x="504" y="418"/>
      <point x="439" y="502"/>
    </contour>
    <contour>
      <point x="308" y="28" type="curve" smooth="yes"/>
      <point x="231" y="28"/>
      <point x="169" y="75"/>
      <point x="169" y="243" type="curve" smooth="yes"/>
      <point x="169" y="377"/>
      <point x="208" y="463"/>
      <point x="300" y="463" type="curve" smooth="yes"/>
      <point x="398" y="463"/>
      <point x="441" y="389"/>
      <point x="441" y="243" type="curve" smooth="yes"/>
      <point x="441" y="96"/>
      <point x="399" y="28"/>
    </contour>
    <contour>
      <point x="17" y="-106" type="line"/>
      <point x="463" y="-106" type="line"/>
      <point x="463" y="-72" type="line"/>
      <point x="17" y="-72" type="line"/>
    </contour>
  </outline>
</glyph>
<glyph name="uni0585" format="2">
  <advance width="510"/>
  <unicode hex="0585"/>
  <note>
uni0585
</note>
  <anchor x="255" y="492" name="top"/>
  <outline>
    <contour>
      <point x="254" y="-10" type="curve" smooth="yes"/>
      <point x="385" y="-10"/>
      <point x="453" y="74"/>
      <point x="453" y="247" type="curve" smooth="yes"/>
      <point x="453" y="423"/>
      <point x="383" y="502"/>
      <point x="258" y="502" type="curve" smooth="yes"/>
      <point x="124" y="502"/>
      <point x="56" y="419"/>
      <point x="56" y="247" type="curve" smooth="yes"/>
      <point x="56" y="74"/>
      <point x="131" y="-10"/>
    </contour>
    <contour>
      <point x="256" y="25" type="curve" smooth="yes"/>
      <point x="160" y="25"/>
      <point x="120" y="107"/>
      <point x="120" y="247" type="curve" smooth="yes"/>
      <point x="120" y="392"/>
      <point x="159" y="466"/>
      <point x="258" y="466" type="curve" smooth="yes"/>
      <point x="350" y="466"/>
      <point x="391" y="395"/>
      <point x="391" y="247" type="curve" smooth="yes"/>
      <point x="391" y="111"/>
      <point x="356" y="25"/>
    </contour>
  </outline>
</glyph>
<glyph name="uni0586" format="2">
  <advance width="610"/>
  <unicode hex="0586"/>
  <note>
uni0586
</note>
  <outline>
    <contour>
      <point x="292" y="-10" type="curve" smooth="yes"/>
      <point x="465" y="-10"/>
      <point x="560" y="73"/>
      <point x="560" y="198" type="curve" smooth="yes"/>
      <point x="560" y="326"/>
      <point x="490" y="397"/>
      <point x="303" y="453" type="curve" smooth="yes"/>
      <point x="154" y="498"/>
      <point x="120" y="538"/>
      <point x="120" y="613" type="curve" smooth="yes"/>
      <point x="120" y="683"/>
      <point x="165" y="730"/>
      <point x="269" y="730" type="curve"/>
      <point x="269" y="765" type="line"/>
      <point x="130" y="765"/>
      <point x="59" y="702"/>
      <point x="59" y="612" type="curve" smooth="yes"/>
      <point x="59" y="516"/>
      <point x="108" y="464"/>
      <point x="287" y="413" type="curve"/>
      <point x="445" y="365"/>
      <point x="497" y="305"/>
      <point x="497" y="197" type="curve" smooth="yes"/>
      <point x="497" y="88"/>
      <point x="428" y="25"/>
      <point x="291" y="25" type="curve" smooth="yes"/>
      <point x="140" y="25"/>
      <point x="79" y="90"/>
      <point x="79" y="197" type="curve"/>
      <point x="51" y="197"/>
      <point x="32" y="181"/>
      <point x="32" y="157" type="curve" smooth="yes"/>
      <point x="32" y="71"/>
      <point x="105" y="-10"/>
    </contour>
    <contour>
      <point x="269" y="-265" type="line"/>
      <point x="383" y="-265" type="line"/>
      <point x="383" y="-236" type="line"/>
      <point x="332" y="-236"/>
      <point x="326" y="-230"/>
      <point x="326" y="-165" type="curve" smooth="yes"/>
      <point x="326" y="765" type="line"/>
      <point x="269" y="765" type="line"/>
    </contour>
  </outline>
</glyph>
<glyph name="uni0587" format="2">
  <advance width="557"/>
  <unicode hex="0587"/>
  <note>
uni0587
</note>
  <outline>
    <contour>
      <point x="236" y="-11" type="curve" smooth="yes"/>
      <point x="313" y="-11"/>
      <point x="350" y="23"/>
      <point x="382" y="86" type="curve"/>
      <point x="386" y="86" type="line"/>
      <point x="391" y="0" type="line"/>
      <point x="446" y="0" type="line"/>
      <point x="446" y="492" type="line"/>
      <point x="324" y="492" type="line"/>
      <point x="324" y="463" type="line"/>
      <point x="381" y="463"/>
      <point x="384" y="458"/>
      <point x="384" y="396" type="curve" smooth="yes"/>
      <point x="384" y="209" type="line" smooth="yes"/>
      <point x="384" y="115"/>
      <point x="344" y="31"/>
      <point x="255" y="31" type="curve" smooth="yes"/>
      <point x="172" y="31"/>
      <point x="148" y="96"/>
      <point x="148" y="188" type="curve" smooth="yes"/>
      <point x="148" y="760" type="line"/>
      <point x="27" y="760" type="line"/>
      <point x="27" y="731" type="line"/>
      <point x="81" y="731"/>
      <point x="85" y="726"/>
      <point x="85" y="663" type="curve" smooth="yes"/>
      <point x="85" y="183" type="line" smooth="yes"/>
      <point x="85" y="50"/>
      <point x="136" y="-11"/>
    </contour>
    <contour>
      <point x="433" y="0" type="line"/>
      <point x="563" y="0" type="line"/>
      <point x="563" y="37" type="line"/>
      <point x="433" y="37" type="line"/>
    </contour>
  </outline>
</glyph>
<glyph name="uni0588" format="2">
  <advance width="242"/>
  <unicode hex="0588"/>
  <note>
uni0575
</note>
  <outline>
    <contour>
      <point x="91" y="90" type="line"/>
      <point x="91" y="-24"/>
      <point x="133" y="-59"/>
      <point x="133" y="-151" type="curve" smooth="yes"/>
      <point x="133" y="-209"/>
      <point x="106" y="-230"/>
      <point x="49" y="-230" type="curve" smooth="yes"/>
      <point x="41" y="-230" type="line"/>
      <point x="41" y="-265" type="line"/>
      <point x="54" y="-265" type="line" smooth="yes"/>
      <point x="153" y="-265"/>
      <point x="195" y="-226"/>
      <point x="195" y="-149" type="curve" smooth="yes"/>
      <point x="195" y="-50"/>
      <point x="154" y="-17"/>
      <point x="154" y="90" type="curve" smooth="yes"/>
      <point x="154" y="492" type="line"/>
      <point x="29" y="492" type="line"/>
      <point x="29" y="463" type="line"/>
      <point x="51" y="463" type="line" smooth="yes"/>
      <point x="86" y="463"/>
      <point x="91" y="457"/>
      <point x="91" y="418" type="curve" smooth="yes"/>
    </contour>
    <contour>
      <point x="18" y="112" type="line"/>
      <point x="18" y="87" type="line"/>
      <point x="227" y="87" type="line"/>
      <point x="227" y="112" type="line"/>
    </contour>
  </outline>
</glyph>
<glyph name="uni0589" format="2">
  <advance width="236"/>
  <unicode hex="0589"/>
  <note>
uni0589
</note>
  <outline>
    <contour>
      <point x="118" y="399" type="curve" smooth="yes"/>
      <point x="141" y="399"/>
      <point x="162" y="411"/>
      <point x="162" y="450" type="curve" smooth="yes"/>
      <point x="162" y="489"/>
      <point x="141" y="500"/>
      <point x="118" y="500" type="curve" smooth="yes"/>
      <point x="94" y="500"/>
      <point x="74" y="489"/>
      <point x="74" y="450" type="curve" smooth="yes"/>
      <point x="74" y="411"/>
      <point x="94" y="399"/>
    </contour>
    <contour>
      <point x="118" y="-6" type="curve" smooth="yes"/>
      <point x="141" y="-6"/>
      <point x="162" y="6"/>
      <point x="162" y="45" type="curve" smooth="yes"/>
      <point x="162" y="84"/>
      <point x="141" y="95"/>
      <point x="118" y="95" type="curve" smooth="yes"/>
      <point x="94" y="95"/>
      <point x="74" y="84"/>
      <point x="74" y="45" type="curve" smooth="yes"/>
      <point x="74" y="6"/>
      <point x="94" y="-6"/>
    </contour>
  </outline>
</glyph>
<glyph name="uni058A" format="2">
  <advance width="439"/>
  <unicode hex="058A"/>
  <note>
uni058A
</note>
  <outline>
    <contour>
      <point x="188" y="215" type="curve" smooth="yes"/>
      <point x="257" y="215"/>
      <point x="323" y="225"/>
      <point x="384" y="257" type="curve"/>
      <point x="372" y="291" type="line"/>
      <point x="315" y="268"/>
      <point x="255" y="259"/>
      <point x="203" y="259" type="curve" smooth="yes"/>
      <point x="139" y="259"/>
      <point x="114" y="280"/>
      <point x="114" y="331" type="curve"/>
      <point x="61" y="331" type="line"/>
      <point x="61" y="249"/>
      <point x="102" y="215"/>
    </contour>
  </outline>
</glyph>
<glyph name="uni058D" format="2">
  <advance width="814"/>
  <unicode hex="058D"/>
  <outline>
    <contour>
      <point x="407" y="-9" type="curve" smooth="yes"/>
      <point x="457" y="-9"/>
      <point x="504" y="11"/>
      <point x="538" y="43" type="curve"/>
      <point x="640" y="48"/>
      <point x="720" y="127"/>
      <point x="722" y="227" type="curve"/>
      <point x="755" y="262"/>
      <point x="775" y="307"/>
      <point x="775" y="357" type="curve" smooth="yes"/>
      <point x="775" y="408"/>
      <point x="755" y="454"/>
      <point x="722" y="488" type="curve"/>
      <point x="718" y="591"/>
      <point x="637" y="667"/>
      <point x="538" y="670" type="curve"/>
      <point x="504" y="703"/>
      <point x="458" y="723"/>
      <point x="407" y="723" type="curve" smooth="yes"/>
      <point x="356" y="723"/>
      <point x="309" y="703"/>
      <point x="275" y="671" type="curve"/>
      <point x="171" y="666"/>
      <point x="94" y="584"/>
      <point x="92" y="487" type="curve"/>
      <point x="59" y="452"/>
      <point x="39" y="406"/>
      <point x="39" y="357" type="curve" smooth="yes"/>
      <point x="39" y="306"/>
      <point x="59" y="260"/>
      <point x="92" y="226" type="curve"/>
      <point x="94" y="125"/>
      <point x="177" y="47"/>
      <point x="275" y="44" type="curve"/>
      <point x="310" y="11"/>
      <point x="357" y="-9"/>
    </contour>
    <contour>
      <point x="570" y="82" type="curve"/>
      <point x="589" y="111"/>
      <point x="600" y="146"/>
      <point x="600" y="183" type="curve" smooth="yes"/>
      <point x="600" y="274"/>
      <point x="535" y="350"/>
      <point x="449" y="369" type="curve"/>
      <point x="473" y="384"/>
      <point x="500" y="391"/>
      <point x="528" y="391" type="curve" smooth="yes"/>
      <point x="618" y="391"/>
      <point x="686" y="318"/>
      <point x="686" y="232" type="curve" smooth="yes"/>
      <point x="686" y="160"/>
      <point x="636" y="99"/>
    </contour>
    <contour>
      <point x="407" y="24" type="curve" smooth="yes"/>
      <point x="378" y="24"/>
      <point x="350" y="33"/>
      <point x="327" y="48" type="curve"/>
      <point x="414" y="66"/>
      <point x="476" y="144"/>
      <point x="476" y="233" type="curve" smooth="yes"/>
      <point x="476" y="269"/>
      <point x="467" y="303"/>
      <point x="446" y="334" type="curve"/>
      <point x="513" y="317"/>
      <point x="562" y="255"/>
      <point x="562" y="183" type="curve" smooth="yes"/>
      <point x="562" y="95"/>
      <point x="492" y="24"/>
    </contour>
    <contour>
      <point x="717" y="279" type="curve"/>
      <point x="696" y="365"/>
      <point x="619" y="425"/>
      <point x="532" y="425" type="curve" smooth="yes"/>
      <point x="496" y="425"/>
      <point x="462" y="415"/>
      <point x="431" y="396" type="curve"/>
      <point x="448" y="463"/>
      <point x="509" y="514"/>
      <point x="581" y="514" type="curve" smooth="yes"/>
      <point x="668" y="514"/>
      <point x="738" y="443"/>
      <point x="738" y="357" type="curve" smooth="yes"/>
      <point x="738" y="329"/>
      <point x="731" y="302"/>
    </contour>
    <contour>
      <point x="282" y="77" type="curve" smooth="yes"/>
      <point x="209" y="77"/>
      <point x="150" y="127"/>
      <point x="134" y="194" type="curve"/>
      <point x="163" y="176"/>
      <point x="197" y="165"/>
      <point x="233" y="165" type="curve" smooth="yes"/>
      <point x="323" y="165"/>
      <point x="399" y="228"/>
      <point x="419" y="311" type="curve"/>
      <point x="433" y="289"/>
      <point x="439" y="262"/>
      <point x="439" y="236" type="curve" smooth="yes"/>
      <point x="439" y="146"/>
      <point x="370" y="77"/>
    </contour>
    <contour>
      <point x="395" y="403" type="curve"/>
      <point x="381" y="425"/>
      <point x="374" y="452"/>
      <point x="374" y="478" type="curve" smooth="yes"/>
      <point x="374" y="568"/>
      <point x="444" y="637"/>
      <point x="532" y="637" type="curve" smooth="yes"/>
      <point x="603" y="637"/>
      <point x="663" y="591"/>
      <point x="680" y="520" type="curve"/>
      <point x="651" y="538"/>
      <point x="617" y="549"/>
      <point x="580" y="549" type="curve" smooth="yes"/>
      <point x="490" y="549"/>
      <point x="415" y="486"/>
    </contour>
    <contour>
      <point x="233" y="200" type="curve" smooth="yes"/>
      <point x="146" y="200"/>
      <point x="76" y="271"/>
      <point x="76" y="357" type="curve" smooth="yes"/>
      <point x="76" y="385"/>
      <point x="84" y="412"/>
      <point x="98" y="434" type="curve"/>
      <point x="118" y="349"/>
      <point x="195" y="289"/>
      <point x="283" y="289" type="curve" smooth="yes"/>
      <point x="318" y="289"/>
      <point x="352" y="299"/>
      <point x="383" y="318" type="curve"/>
      <point x="366" y="251"/>
      <point x="306" y="200"/>
    </contour>
    <contour>
      <point x="367" y="380" type="curve"/>
      <point x="301" y="397"/>
      <point x="251" y="459"/>
      <point x="251" y="531" type="curve" smooth="yes"/>
      <point x="251" y="619"/>
      <point x="321" y="690"/>
      <point x="406" y="690" type="curve" smooth="yes"/>
      <point x="435" y="690"/>
      <point x="463" y="682"/>
      <point x="486" y="666" type="curve"/>
      <point x="399" y="648"/>
      <point x="337" y="570"/>
      <point x="337" y="481" type="curve" smooth="yes"/>
      <point x="337" y="445"/>
      <point x="347" y="411"/>
    </contour>
    <contour>
      <point x="285" y="323" type="curve" smooth="yes"/>
      <point x="195" y="323"/>
      <point x="127" y="396"/>
      <point x="127" y="482" type="curve" smooth="yes"/>
      <point x="127" y="555"/>
      <point x="177" y="614"/>
      <point x="242" y="632" type="curve"/>
      <point x="224" y="603"/>
      <point x="213" y="568"/>
      <point x="213" y="531" type="curve" smooth="yes"/>
      <point x="213" y="440"/>
      <point x="278" y="364"/>
      <point x="364" y="345" type="curve"/>
      <point x="340" y="330"/>
      <point x="313" y="323"/>
    </contour>
  </outline>
</glyph>
<glyph name="uni058E" format="2">
  <advance width="814"/>
  <unicode hex="058E"/>
  <outline>
    <contour>
      <point x="407" y="-9" type="curve" smooth="yes"/>
      <point x="457" y="-9"/>
      <point x="504" y="11"/>
      <point x="539" y="44" type="curve"/>
      <point x="637" y="47"/>
      <point x="719" y="125"/>
      <point x="722" y="226" type="curve"/>
      <point x="755" y="260"/>
      <point x="775" y="306"/>
      <point x="775" y="357" type="curve" smooth="yes"/>
      <point x="775" y="406"/>
      <point x="755" y="452"/>
      <point x="722" y="487" type="curve"/>
      <point x="720" y="584"/>
      <point x="643" y="666"/>
      <point x="539" y="671" type="curve"/>
      <point x="504" y="703"/>
      <point x="457" y="723"/>
      <point x="407" y="723" type="curve" smooth="yes"/>
      <point x="356" y="723"/>
      <point x="310" y="703"/>
      <point x="275" y="670" type="curve"/>
      <point x="177" y="667"/>
      <point x="96" y="591"/>
      <point x="92" y="488" type="curve"/>
      <point x="59" y="454"/>
      <point x="39" y="408"/>
      <point x="39" y="357" type="curve" smooth="yes"/>
      <point x="39" y="307"/>
      <point x="59" y="262"/>
      <point x="92" y="227" type="curve"/>
      <point x="94" y="127"/>
      <point x="174" y="48"/>
      <point x="275" y="43" type="curve"/>
      <point x="310" y="11"/>
      <point x="356" y="-9"/>
    </contour>
    <contour>
      <point x="243" y="82" type="curve"/>
      <point x="177" y="99"/>
      <point x="127" y="160"/>
      <point x="127" y="232" type="curve" smooth="yes"/>
      <point x="127" y="318"/>
      <point x="195" y="391"/>
      <point x="285" y="391" type="curve" smooth="yes"/>
      <point x="313" y="391"/>
      <point x="340" y="384"/>
      <point x="364" y="369" type="curve"/>
      <point x="278" y="350"/>
      <point x="213" y="274"/>
      <point x="213" y="183" type="curve" smooth="yes"/>
      <point x="213" y="146"/>
      <point x="224" y="111"/>
    </contour>
    <contour>
      <point x="406" y="24" type="curve" smooth="yes"/>
      <point x="321" y="24"/>
      <point x="251" y="95"/>
      <point x="251" y="183" type="curve" smooth="yes"/>
      <point x="251" y="255"/>
      <point x="301" y="317"/>
      <point x="367" y="334" type="curve"/>
      <point x="347" y="303"/>
      <point x="337" y="269"/>
      <point x="337" y="233" type="curve" smooth="yes"/>
      <point x="337" y="144"/>
      <point x="399" y="66"/>
      <point x="486" y="48" type="curve"/>
      <point x="463" y="33"/>
      <point x="436" y="24"/>
    </contour>
    <contour>
      <point x="97" y="279" type="curve"/>
      <point x="83" y="302"/>
      <point x="76" y="329"/>
      <point x="76" y="357" type="curve" smooth="yes"/>
      <point x="76" y="443"/>
      <point x="146" y="514"/>
      <point x="233" y="514" type="curve" smooth="yes"/>
      <point x="306" y="514"/>
      <point x="366" y="463"/>
      <point x="383" y="396" type="curve"/>
      <point x="352" y="415"/>
      <point x="318" y="425"/>
      <point x="283" y="425" type="curve" smooth="yes"/>
      <point x="195" y="425"/>
      <point x="119" y="365"/>
    </contour>
    <contour>
      <point x="532" y="77" type="curve" smooth="yes"/>
      <point x="444" y="77"/>
      <point x="374" y="146"/>
      <point x="374" y="236" type="curve" smooth="yes"/>
      <point x="374" y="262"/>
      <point x="381" y="289"/>
      <point x="395" y="311" type="curve"/>
      <point x="415" y="228"/>
      <point x="490" y="165"/>
      <point x="580" y="165" type="curve" smooth="yes"/>
      <point x="617" y="165"/>
      <point x="651" y="176"/>
      <point x="679" y="194" type="curve"/>
      <point x="663" y="127"/>
      <point x="605" y="77"/>
    </contour>
    <contour>
      <point x="418" y="403" type="curve"/>
      <point x="398" y="486"/>
      <point x="323" y="549"/>
      <point x="233" y="549" type="curve" smooth="yes"/>
      <point x="196" y="549"/>
      <point x="162" y="538"/>
      <point x="133" y="520" type="curve"/>
      <point x="149" y="591"/>
      <point x="210" y="637"/>
      <point x="281" y="637" type="curve" smooth="yes"/>
      <point x="369" y="637"/>
      <point x="439" y="568"/>
      <point x="439" y="478" type="curve" smooth="yes"/>
      <point x="439" y="452"/>
      <point x="432" y="425"/>
    </contour>
    <contour>
      <point x="581" y="200" type="curve" smooth="yes"/>
      <point x="509" y="200"/>
      <point x="448" y="251"/>
      <point x="431" y="318" type="curve"/>
      <point x="462" y="299"/>
      <point x="496" y="289"/>
      <point x="532" y="289" type="curve" smooth="yes"/>
      <point x="619" y="289"/>
      <point x="696" y="349"/>
      <point x="716" y="434" type="curve"/>
      <point x="730" y="412"/>
      <point x="738" y="385"/>
      <point x="738" y="357" type="curve" smooth="yes"/>
      <point x="738" y="271"/>
      <point x="668" y="200"/>
    </contour>
    <contour>
      <point x="446" y="380" type="curve"/>
      <point x="467" y="411"/>
      <point x="476" y="445"/>
      <point x="476" y="481" type="curve" smooth="yes"/>
      <point x="476" y="570"/>
      <point x="414" y="648"/>
      <point x="327" y="666" type="curve"/>
      <point x="350" y="682"/>
      <point x="378" y="690"/>
      <point x="407" y="690" type="curve" smooth="yes"/>
      <point x="492" y="690"/>
      <point x="562" y="619"/>
      <point x="562" y="531" type="curve" smooth="yes"/>
      <point x="562" y="459"/>
      <point x="513" y="397"/>
    </contour>
    <contour>
      <point x="528" y="323" type="curve" smooth="yes"/>
      <point x="500" y="323"/>
      <point x="473" y="330"/>
      <point x="449" y="345" type="curve"/>
      <point x="535" y="364"/>
      <point x="600" y="440"/>
      <point x="600" y="531" type="curve" smooth="yes"/>
      <point x="600" y="568"/>
      <point x="589" y="603"/>
      <point x="571" y="632" type="curve"/>
      <point x="636" y="614"/>
      <point x="686" y="555"/>
      <point x="686" y="482" type="curve" smooth="yes"/>
      <point x="686" y="396"/>
      <point x="618" y="323"/>
    </contour>
  </outline>
</glyph>
<glyph name="uni058F" format="2">
  <advance width="646"/>
  <unicode hex="058F"/>
  <note>
uni058F
</note>
  <outline>
    <contour>
      <point x="52" y="367" type="line"/>
      <point x="116" y="367" type="line"/>
      <point x="116" y="451" type="line" smooth="yes"/>
      <point x="116" y="557"/>
      <point x="168" y="638"/>
      <point x="279" y="638" type="curve" smooth="yes"/>
      <point x="380" y="638"/>
      <point x="440" y="580"/>
      <point x="440" y="457" type="curve" smooth="yes"/>
      <point x="440" y="0" type="line"/>
      <point x="558" y="0" type="line"/>
      <point x="558" y="28" type="line"/>
      <point x="511" y="28"/>
      <point x="504" y="39"/>
      <point x="504" y="109" type="curve" smooth="yes"/>
      <point x="504" y="448" type="line" smooth="yes"/>
      <point x="504" y="607"/>
      <point x="417" y="674"/>
      <point x="278" y="674" type="curve" smooth="yes"/>
      <point x="128" y="674"/>
      <point x="52" y="580"/>
      <point x="52" y="445" type="curve" smooth="yes"/>
    </contour>
    <contour>
      <point x="316" y="304" type="line"/>
      <point x="631" y="304" type="line"/>
      <point x="631" y="338" type="line"/>
      <point x="316" y="338" type="line"/>
    </contour>
    <contour>
      <point x="316" y="209" type="line"/>
      <point x="631" y="209" type="line"/>
      <point x="631" y="244" type="line"/>
      <point x="316" y="244" type="line"/>
    </contour>
  </outline>
</glyph>
<glyph name="uniFB13" format="2">
  <advance width="1089"/>
  <unicode hex="FB13"/>
  <note>
uniFB13
</note>
  <outline>
    <contour>
      <point x="445" y="96" type="curve" smooth="yes"/>
      <point x="445" y="437" type="line" smooth="yes"/>
      <point x="445" y="500"/>
      <point x="425" y="531"/>
      <point x="399" y="571" type="curve" smooth="yes"/>
      <point x="382" y="598"/>
      <point x="372" y="622"/>
      <point x="372" y="655" type="curve" smooth="yes"/>
      <point x="372" y="703"/>
      <point x="397" y="734"/>
      <point x="450" y="734" type="curve" smooth="yes"/>
      <point x="505" y="734"/>
      <point x="566" y="716"/>
      <point x="643" y="676" type="curve"/>
      <point x="690" y="703" type="line"/>
      <point x="595" y="751"/>
      <point x="521" y="769"/>
      <point x="448" y="769" type="curve" smooth="yes"/>
      <point x="359" y="769"/>
      <point x="315" y="721"/>
      <point x="315" y="650" type="curve" smooth="yes"/>
      <point x="315" y="607"/>
      <point x="328" y="579"/>
      <point x="346" y="551" type="curve" smooth="yes"/>
      <point x="367" y="518"/>
      <point x="383" y="487"/>
      <point x="383" y="435" type="curve" smooth="yes"/>
      <point x="383" y="209" type="line" smooth="yes"/>
      <point x="383" y="115"/>
      <point x="343" y="31"/>
      <point x="254" y="31" type="curve" smooth="yes"/>
      <point x="171" y="31"/>
      <point x="147" y="96"/>
      <point x="147" y="188" type="curve" smooth="yes"/>
      <point x="147" y="492" type="line"/>
      <point x="26" y="492" type="line"/>
      <point x="26" y="463" type="line"/>
      <point x="80" y="463"/>
      <point x="84" y="458"/>
      <point x="84" y="395" type="curve" smooth="yes"/>
      <point x="84" y="183" type="line" smooth="yes"/>
      <point x="84" y="50"/>
      <point x="135" y="-11"/>
      <point x="235" y="-11" type="curve" smooth="yes"/>
      <point x="312" y="-11"/>
      <point x="349" y="23"/>
      <point x="381" y="86" type="curve"/>
      <point x="385" y="86" type="line"/>
      <point x="390" y="0" type="line"/>
      <point x="505" y="0" type="line"/>
      <point x="505" y="29" type="line"/>
      <point x="453" y="29"/>
      <point x="445" y="35"/>
    </contour>
    <contour>
      <point x="991" y="96" type="curve" smooth="yes"/>
      <point x="991" y="492" type="line"/>
      <point x="871" y="492" type="line"/>
      <point x="871" y="463" type="line"/>
      <point x="925" y="463"/>
      <point x="929" y="458"/>
      <point x="929" y="396" type="curve" smooth="yes"/>
      <point x="929" y="209" type="line" smooth="yes"/>
      <point x="929" y="122"/>
      <point x="893" y="31"/>
      <point x="783" y="31" type="curve" smooth="yes"/>
      <point x="700" y="31"/>
      <point x="660" y="101"/>
      <point x="660" y="197" type="curve" smooth="yes"/>
      <point x="660" y="317"/>
      <point x="694" y="429"/>
      <point x="760" y="555" type="curve"/>
      <point x="714" y="573" type="line"/>
      <point x="638" y="444"/>
      <point x="597" y="319"/>
      <point x="597" y="192" type="curve" smooth="yes"/>
      <point x="597" y="56"/>
      <point x="668" y="-11"/>
      <point x="770" y="-11" type="curve" smooth="yes"/>
      <point x="844" y="-11"/>
      <point x="884" y="6"/>
      <point x="927" y="81" type="curve"/>
      <point x="931" y="81" type="line"/>
      <point x="936" y="0" type="line"/>
      <point x="1054" y="0" type="line"/>
      <point x="1054" y="29" type="line"/>
      <point x="998" y="29"/>
      <point x="991" y="35"/>
    </contour>
    <contour>
      <point x="690" y="703" type="curve"/>
      <point x="635" y="713" type="line"/>
      <point x="622" y="699"/>
      <point x="614" y="678"/>
      <point x="614" y="656" type="curve" smooth="yes"/>
      <point x="614" y="598"/>
      <point x="649" y="562"/>
      <point x="708" y="544" type="curve"/>
      <point x="760" y="555" type="line"/>
      <point x="760" y="570" type="line"/>
      <point x="700" y="582"/>
      <point x="671" y="606"/>
      <point x="671" y="651" type="curve" smooth="yes"/>
      <point x="671" y="672"/>
      <point x="676" y="688"/>
    </contour>
  </outline>
</glyph>
<glyph name="uniFB14" format="2">
  <advance width="1085"/>
  <unicode hex="FB14"/>
  <note>
uniFB14
</note>
  <outline>
    <contour>
      <point x="315" y="650" type="curve" smooth="yes"/>
      <point x="315" y="606"/>
      <point x="329" y="578"/>
      <point x="347" y="550" type="curve" smooth="yes"/>
      <point x="367" y="518"/>
      <point x="383" y="486"/>
      <point x="383" y="435" type="curve" smooth="yes"/>
      <point x="383" y="209" type="line" smooth="yes"/>
      <point x="383" y="115"/>
      <point x="343" y="31"/>
      <point x="254" y="31" type="curve" smooth="yes"/>
      <point x="171" y="31"/>
      <point x="147" y="96"/>
      <point x="147" y="188" type="curve" smooth="yes"/>
      <point x="147" y="492" type="line"/>
      <point x="26" y="492" type="line"/>
      <point x="26" y="463" type="line"/>
      <point x="80" y="463"/>
      <point x="84" y="458"/>
      <point x="84" y="395" type="curve" smooth="yes"/>
      <point x="84" y="183" type="line" smooth="yes"/>
      <point x="84" y="50"/>
      <point x="135" y="-11"/>
      <point x="235" y="-11" type="curve" smooth="yes"/>
      <point x="312" y="-11"/>
      <point x="349" y="23"/>
      <point x="381" y="86" type="curve"/>
      <point x="385" y="86" type="line"/>
      <point x="390" y="0" type="line"/>
      <point x="505" y="0" type="line"/>
      <point x="505" y="29" type="line"/>
      <point x="453" y="29"/>
      <point x="445" y="35"/>
      <point x="445" y="96" type="curve" smooth="yes"/>
      <point x="445" y="437" type="line" smooth="yes"/>
      <point x="445" y="499"/>
      <point x="426" y="534"/>
      <point x="398" y="576" type="curve" smooth="yes"/>
      <point x="382" y="601"/>
      <point x="372" y="624"/>
      <point x="372" y="655" type="curve" smooth="yes"/>
      <point x="372" y="703"/>
      <point x="397" y="734"/>
      <point x="450" y="734" type="curve" smooth="yes"/>
      <point x="514" y="734"/>
      <point x="588" y="718"/>
      <point x="669" y="673" type="curve"/>
      <point x="691" y="712" type="line"/>
      <point x="598" y="753"/>
      <point x="530" y="769"/>
      <point x="448" y="769" type="curve" smooth="yes"/>
      <point x="359" y="769"/>
      <point x="315" y="721"/>
    </contour>
    <contour>
      <point x="989" y="317" type="line"/>
      <point x="927" y="317" type="line"/>
      <point x="927" y="209" type="line" smooth="yes"/>
      <point x="927" y="115"/>
      <point x="888" y="31"/>
      <point x="798" y="31" type="curve" smooth="yes"/>
      <point x="715" y="31"/>
      <point x="691" y="96"/>
      <point x="691" y="188" type="curve" smooth="yes"/>
      <point x="691" y="712" type="line"/>
      <point x="628" y="712" type="line"/>
      <point x="628" y="183" type="line" smooth="yes"/>
      <point x="628" y="50"/>
      <point x="679" y="-11"/>
      <point x="778" y="-11" type="curve" smooth="yes"/>
      <point x="856" y="-11"/>
      <point x="893" y="23"/>
      <point x="924" y="86" type="curve"/>
      <point x="929" y="86" type="line"/>
      <point x="934" y="0" type="line"/>
      <point x="1049" y="0" type="line"/>
      <point x="1049" y="29" type="line"/>
      <point x="996" y="29"/>
      <point x="989" y="35"/>
      <point x="989" y="96" type="curve" smooth="yes"/>
    </contour>
    <contour>
      <point x="675" y="457" type="line"/>
      <point x="1050" y="457" type="line"/>
      <point x="1050" y="492" type="line"/>
      <point x="675" y="492" type="line"/>
    </contour>
  </outline>
</glyph>
<glyph name="uniFB15" format="2">
  <advance width="1078"/>
  <unicode hex="FB15"/>
  <note>
uniFB15
</note>
  <outline>
    <contour>
      <point x="315" y="650" type="curve" smooth="yes"/>
      <point x="315" y="610"/>
      <point x="327" y="583"/>
      <point x="344" y="556" type="curve" smooth="yes"/>
      <point x="366" y="521"/>
      <point x="383" y="489"/>
      <point x="383" y="435" type="curve" smooth="yes"/>
      <point x="383" y="209" type="line" smooth="yes"/>
      <point x="383" y="115"/>
      <point x="343" y="31"/>
      <point x="254" y="31" type="curve" smooth="yes"/>
      <point x="171" y="31"/>
      <point x="147" y="96"/>
      <point x="147" y="188" type="curve" smooth="yes"/>
      <point x="147" y="492" type="line"/>
      <point x="26" y="492" type="line"/>
      <point x="26" y="463" type="line"/>
      <point x="80" y="463"/>
      <point x="84" y="458"/>
      <point x="84" y="395" type="curve" smooth="yes"/>
      <point x="84" y="183" type="line" smooth="yes"/>
      <point x="84" y="50"/>
      <point x="135" y="-11"/>
      <point x="235" y="-11" type="curve" smooth="yes"/>
      <point x="312" y="-11"/>
      <point x="349" y="23"/>
      <point x="381" y="86" type="curve"/>
      <point x="385" y="86" type="line"/>
      <point x="390" y="0" type="line"/>
      <point x="505" y="0" type="line"/>
      <point x="505" y="29" type="line"/>
      <point x="453" y="29"/>
      <point x="445" y="35"/>
      <point x="445" y="96" type="curve" smooth="yes"/>
      <point x="445" y="437" type="line" smooth="yes"/>
      <point x="445" y="501"/>
      <point x="425" y="537"/>
      <point x="396" y="580" type="curve" smooth="yes"/>
      <point x="381" y="603"/>
      <point x="372" y="627"/>
      <point x="372" y="655" type="curve" smooth="yes"/>
      <point x="372" y="703"/>
      <point x="401" y="734"/>
      <point x="454" y="734" type="curve" smooth="yes"/>
      <point x="510" y="734"/>
      <point x="585" y="718"/>
      <point x="671" y="673" type="curve"/>
      <point x="693" y="712" type="line"/>
      <point x="590" y="756"/>
      <point x="521" y="769"/>
      <point x="452" y="769" type="curve" smooth="yes"/>
      <point x="364" y="769"/>
      <point x="315" y="721"/>
    </contour>
    <contour>
      <point x="1051" y="29" type="line"/>
      <point x="995" y="29"/>
      <point x="991" y="34"/>
      <point x="991" y="97" type="curve" smooth="yes"/>
      <point x="991" y="315" type="line" smooth="yes"/>
      <point x="991" y="442"/>
      <point x="944" y="502"/>
      <point x="842" y="502" type="curve" smooth="yes"/>
      <point x="777" y="502"/>
      <point x="731" y="484"/>
      <point x="694" y="409" type="curve"/>
      <point x="689" y="409" type="line"/>
      <point x="691" y="436"/>
      <point x="693" y="462"/>
      <point x="693" y="490" type="curve" smooth="yes"/>
      <point x="693" y="712" type="line"/>
      <point x="630" y="712" type="line"/>
      <point x="630" y="-265" type="line"/>
      <point x="752" y="-265" type="line"/>
      <point x="752" y="-236" type="line"/>
      <point x="697" y="-236"/>
      <point x="693" y="-231"/>
      <point x="693" y="-169" type="curve" smooth="yes"/>
      <point x="693" y="283" type="line" smooth="yes"/>
      <point x="693" y="370"/>
      <point x="719" y="460"/>
      <point x="821" y="460" type="curve" smooth="yes"/>
      <point x="902" y="460"/>
      <point x="929" y="401"/>
      <point x="929" y="313" type="curve" smooth="yes"/>
      <point x="929" y="0" type="line"/>
      <point x="1051" y="0" type="line"/>
    </contour>
  </outline>
</glyph>
<glyph name="uniFB16" format="2">
  <advance width="1066"/>
  <unicode hex="FB16"/>
  <note>
uniFB16
</note>
  <outline>
    <contour>
      <point x="384" y="-265" type="line"/>
      <point x="447" y="-265" type="line"/>
      <point x="447" y="696" type="line" smooth="yes"/>
      <point x="447" y="722"/>
      <point x="456" y="734"/>
      <point x="486" y="734" type="curve" smooth="yes"/>
      <point x="519" y="734"/>
      <point x="571" y="719"/>
      <point x="627" y="683" type="curve"/>
      <point x="675" y="710" type="line"/>
      <point x="594" y="753"/>
      <point x="527" y="769"/>
      <point x="477" y="769" type="curve"/>
      <point x="411" y="769"/>
      <point x="384" y="743"/>
      <point x="384" y="690" type="curve" smooth="yes"/>
      <point x="384" y="209" type="line" smooth="yes"/>
      <point x="384" y="115"/>
      <point x="344" y="31"/>
      <point x="255" y="31" type="curve" smooth="yes"/>
      <point x="172" y="31"/>
      <point x="148" y="96"/>
      <point x="148" y="188" type="curve" smooth="yes"/>
      <point x="148" y="492" type="line"/>
      <point x="27" y="492" type="line"/>
      <point x="27" y="463" type="line"/>
      <point x="81" y="463"/>
      <point x="85" y="458"/>
      <point x="85" y="395" type="curve" smooth="yes"/>
      <point x="85" y="183" type="line" smooth="yes"/>
      <point x="85" y="50"/>
      <point x="136" y="-11"/>
      <point x="236" y="-11" type="curve" smooth="yes"/>
      <point x="313" y="-11"/>
      <point x="350" y="23"/>
      <point x="382" y="86" type="curve"/>
      <point x="388" y="86" type="line"/>
      <point x="386" y="61"/>
      <point x="384" y="36"/>
      <point x="384" y="12" type="curve" smooth="yes"/>
    </contour>
    <contour>
      <point x="433" y="-265" type="line"/>
      <point x="571" y="-265" type="line"/>
      <point x="571" y="-228" type="line"/>
      <point x="433" y="-228" type="line"/>
    </contour>
    <contour>
      <point x="748" y="-11" type="curve" smooth="yes"/>
      <point x="822" y="-11"/>
      <point x="862" y="6"/>
      <point x="905" y="81" type="curve"/>
      <point x="909" y="81" type="line"/>
      <point x="914" y="0" type="line"/>
      <point x="1032" y="0" type="line"/>
      <point x="1032" y="29" type="line"/>
      <point x="976" y="29"/>
      <point x="969" y="35"/>
      <point x="969" y="96" type="curve" smooth="yes"/>
      <point x="969" y="492" type="line"/>
      <point x="849" y="492" type="line"/>
      <point x="849" y="463" type="line"/>
      <point x="903" y="463"/>
      <point x="907" y="458"/>
      <point x="907" y="396" type="curve" smooth="yes"/>
      <point x="907" y="209" type="line" smooth="yes"/>
      <point x="907" y="122"/>
      <point x="871" y="31"/>
      <point x="761" y="31" type="curve" smooth="yes"/>
      <point x="678" y="31"/>
      <point x="638" y="101"/>
      <point x="638" y="197" type="curve" smooth="yes"/>
      <point x="638" y="317"/>
      <point x="672" y="429"/>
      <point x="738" y="555" type="curve"/>
      <point x="692" y="573" type="line"/>
      <point x="616" y="444"/>
      <point x="575" y="319"/>
      <point x="575" y="192" type="curve" smooth="yes"/>
      <point x="575" y="56"/>
      <point x="646" y="-11"/>
    </contour>
    <contour>
      <point x="686" y="544" type="curve"/>
      <point x="738" y="555" type="line"/>
      <point x="738" y="570" type="line"/>
      <point x="666" y="588"/>
      <point x="649" y="606"/>
      <point x="649" y="643" type="curve" smooth="yes"/>
      <point x="649" y="672"/>
      <point x="656" y="691"/>
      <point x="675" y="710" type="curve"/>
      <point x="624" y="724" type="line"/>
      <point x="605" y="708"/>
      <point x="592" y="680"/>
      <point x="592" y="649" type="curve" smooth="yes"/>
      <point x="592" y="598"/>
      <point x="616" y="569"/>
    </contour>
  </outline>
</glyph>
<glyph name="uniFB17" format="2">
  <advance width="1385"/>
  <unicode hex="FB17"/>
  <note>
uniFB17
</note>
  <outline>
    <contour>
      <point x="315" y="650" type="curve" smooth="yes"/>
      <point x="315" y="604"/>
      <point x="327" y="588"/>
      <point x="343" y="560" type="curve" smooth="yes"/>
      <point x="364" y="522"/>
      <point x="383" y="492"/>
      <point x="383" y="435" type="curve" smooth="yes"/>
      <point x="383" y="209" type="line" smooth="yes"/>
      <point x="383" y="115"/>
      <point x="343" y="31"/>
      <point x="254" y="31" type="curve" smooth="yes"/>
      <point x="171" y="31"/>
      <point x="147" y="96"/>
      <point x="147" y="188" type="curve" smooth="yes"/>
      <point x="147" y="492" type="line"/>
      <point x="26" y="492" type="line"/>
      <point x="26" y="463" type="line"/>
      <point x="80" y="463"/>
      <point x="84" y="458"/>
      <point x="84" y="395" type="curve" smooth="yes"/>
      <point x="84" y="183" type="line" smooth="yes"/>
      <point x="84" y="50"/>
      <point x="135" y="-11"/>
      <point x="235" y="-11" type="curve" smooth="yes"/>
      <point x="312" y="-11"/>
      <point x="349" y="23"/>
      <point x="381" y="86" type="curve"/>
      <point x="385" y="86" type="line"/>
      <point x="390" y="0" type="line"/>
      <point x="505" y="0" type="line"/>
      <point x="505" y="29" type="line"/>
      <point x="453" y="29"/>
      <point x="445" y="35"/>
      <point x="445" y="96" type="curve" smooth="yes"/>
      <point x="445" y="437" type="line" smooth="yes"/>
      <point x="445" y="498"/>
      <point x="427" y="533"/>
      <point x="398" y="575" type="curve" smooth="yes"/>
      <point x="382" y="599"/>
      <point x="372" y="624"/>
      <point x="372" y="655" type="curve" smooth="yes"/>
      <point x="372" y="703"/>
      <point x="404" y="734"/>
      <point x="457" y="734" type="curve" smooth="yes"/>
      <point x="517" y="734"/>
      <point x="593" y="716"/>
      <point x="671" y="672" type="curve"/>
      <point x="693" y="712" type="line"/>
      <point x="603" y="753"/>
      <point x="531" y="769"/>
      <point x="455" y="769" type="curve" smooth="yes"/>
      <point x="366" y="769"/>
      <point x="315" y="721"/>
    </contour>
    <contour>
      <point x="1290" y="96" type="curve" smooth="yes"/>
      <point x="1290" y="492" type="line"/>
      <point x="1168" y="492" type="line"/>
      <point x="1168" y="463" type="line"/>
      <point x="1225" y="463"/>
      <point x="1228" y="458"/>
      <point x="1228" y="396" type="curve" smooth="yes"/>
      <point x="1228" y="209" type="line" smooth="yes"/>
      <point x="1228" y="115"/>
      <point x="1189" y="31"/>
      <point x="1099" y="31" type="curve" smooth="yes"/>
      <point x="1016" y="31"/>
      <point x="991" y="96"/>
      <point x="991" y="188" type="curve" smooth="yes"/>
      <point x="991" y="315" type="line" smooth="yes"/>
      <point x="991" y="442"/>
      <point x="944" y="502"/>
      <point x="842" y="502" type="curve" smooth="yes"/>
      <point x="777" y="502"/>
      <point x="731" y="484"/>
      <point x="694" y="409" type="curve"/>
      <point x="689" y="409" type="line"/>
      <point x="691" y="436"/>
      <point x="693" y="462"/>
      <point x="693" y="489" type="curve" smooth="yes"/>
      <point x="693" y="712" type="line"/>
      <point x="630" y="703" type="line"/>
      <point x="630" y="-265" type="line"/>
      <point x="752" y="-265" type="line"/>
      <point x="752" y="-236" type="line"/>
      <point x="697" y="-236"/>
      <point x="693" y="-231"/>
      <point x="693" y="-169" type="curve" smooth="yes"/>
      <point x="693" y="283" type="line" smooth="yes"/>
      <point x="693" y="370"/>
      <point x="719" y="460"/>
      <point x="821" y="460" type="curve" smooth="yes"/>
      <point x="902" y="460"/>
      <point x="929" y="401"/>
      <point x="929" y="313" type="curve" smooth="yes"/>
      <point x="929" y="183" type="line" smooth="yes"/>
      <point x="929" y="50"/>
      <point x="980" y="-11"/>
      <point x="1079" y="-11" type="curve" smooth="yes"/>
      <point x="1157" y="-11"/>
      <point x="1193" y="23"/>
      <point x="1225" y="86" type="curve"/>
      <point x="1230" y="86" type="line"/>
      <point x="1235" y="0" type="line"/>
      <point x="1350" y="0" type="line"/>
      <point x="1350" y="29" type="line"/>
      <point x="1297" y="29"/>
      <point x="1290" y="35"/>
    </contour>
  </outline>
</glyph>
